<svg width="20" height="20" viewBox="0 0 20 20" fill="none" xmlns="http://www.w3.org/2000/svg">
<path fill-rule="evenodd" clip-rule="evenodd" d="M0.833984 9.4673H19.1673L19.167 10.2065C19.1663 11.9065 18.6602 13.5703 17.7091 14.9997C16.758 16.4291 15.402 17.5637 13.8027 18.2682L13.6519 18.3346H6.51514C4.91593 17.6301 3.24333 16.4291 2.29221 14.9997C1.34109 13.5703 0.835004 11.9065 0.834293 10.2065L0.833984 9.4673ZM6.68503 16.8567H13.3163C14.585 16.2661 15.6612 15.3468 16.4245 14.1998C17.0784 13.217 17.4799 12.1012 17.6006 10.9452H2.40067C2.52139 12.1012 2.92285 13.217 3.57681 14.1998C4.34007 15.3468 5.41626 16.2661 6.68503 16.8567Z" fill="#BFBFBF"/>
<path fill-rule="evenodd" clip-rule="evenodd" d="M19.0387 2.48775L15.9833 6.92142L14.7121 6.10163L17.7676 1.66797L19.0387 2.48775Z" fill="#BFBFBF"/>
<path fill-rule="evenodd" clip-rule="evenodd" d="M14.5394 3.06525L13.1759 6.75997L11.7371 6.26308L13.1006 2.56836L14.5394 3.06525Z" fill="#BFBFBF"/>
<path fill-rule="evenodd" clip-rule="evenodd" d="M7.36093 4.31427C7.9321 4.25047 8.51027 4.3445 9.02847 4.58547C9.34368 4.73205 9.62885 4.92935 9.8726 5.16751C10.0804 5.10458 10.2952 5.06333 10.5134 5.04488C10.9558 5.00748 11.4013 5.06472 11.8182 5.21253C12.2352 5.36035 12.6134 5.59513 12.9261 5.90021C13.0007 5.97301 13.0711 6.04939 13.1372 6.12899C13.3013 6.04291 13.4739 5.97128 13.6529 5.91534C14.1538 5.75884 14.6881 5.73049 15.2036 5.83306C15.7192 5.93563 16.1985 6.16562 16.5949 6.50064C16.9913 6.83565 17.2913 7.26426 17.4656 7.74474L17.7185 8.44199L16.277 8.93135L16.024 8.2341C15.9371 7.99446 15.7875 7.78069 15.5898 7.61361C15.3921 7.44652 15.153 7.33181 14.8959 7.28065C14.6388 7.2295 14.3723 7.24364 14.1225 7.32169C13.8727 7.39975 13.648 7.53906 13.4704 7.72606L12.6138 8.62786L12.1885 7.47436C12.1146 7.27398 11.996 7.0918 11.8412 6.94072C11.6863 6.78964 11.499 6.67338 11.2926 6.60018C11.0861 6.52698 10.8655 6.49863 10.6464 6.51716C10.4273 6.53568 10.2151 6.60062 10.0249 6.70736L9.38627 7.06571L8.99431 6.46046C8.8423 6.22573 8.62466 6.03746 8.3666 5.91746C8.10853 5.79746 7.82061 5.75063 7.53617 5.7824C7.25173 5.81418 6.98242 5.92325 6.75942 6.09699C6.53642 6.27073 6.36886 6.50203 6.27615 6.76409L6.08664 7.2998L5.50263 7.26214C5.47023 7.26005 5.44242 7.25693 5.42298 7.25454L5.39789 7.25129L5.3931 7.25065C5.08562 7.25531 4.78653 7.34965 4.53512 7.52159C4.27711 7.69804 4.082 7.94754 3.97668 8.23573L3.72206 8.93241L2.2817 8.43978L2.53633 7.7431C2.74698 7.16673 3.13719 6.66772 3.65321 6.31482C4.07102 6.02907 4.55468 5.85049 5.05909 5.79293C5.24786 5.46905 5.4992 5.18124 5.80116 4.94598C6.24896 4.5971 6.78976 4.37807 7.36093 4.31427Z" fill="#BFBFBF"/>
<path d="M3.88975 4.29469C4.31162 4.29469 4.65361 3.96386 4.65361 3.55575C4.65361 3.14764 4.31162 2.81681 3.88975 2.81681C3.46788 2.81681 3.12588 3.14764 3.12588 3.55575C3.12588 3.96386 3.46788 4.29469 3.88975 4.29469Z" fill="#BFBFBF"/>
<path d="M10.0007 3.55575C10.4225 3.55575 10.7645 3.22491 10.7645 2.81681C10.7645 2.4087 10.4225 2.07786 10.0007 2.07786C9.57878 2.07786 9.23679 2.4087 9.23679 2.81681C9.23679 3.22491 9.57878 3.55575 10.0007 3.55575Z" fill="#BFBFBF"/>
</svg>
