<svg width="23" height="25" viewBox="0 0 23 25" fill="none" xmlns="http://www.w3.org/2000/svg">
<path fill-rule="evenodd" clip-rule="evenodd" d="M0.333984 6.18135C0.333984 5.44497 0.930938 4.84801 1.66732 4.84801H16.2128C16.9492 4.84801 17.5461 5.44497 17.5461 6.18135V23.151C17.5461 23.8874 16.9492 24.4844 16.2128 24.4844H1.66732C0.930938 24.4844 0.333984 23.8874 0.333984 23.151V6.18135ZM3.00065 7.51468V21.8177H14.8794V7.51468H3.00065Z" fill="#00204D" fill-opacity="0.6" style="mix-blend-mode:multiply"/>
<path fill-rule="evenodd" clip-rule="evenodd" d="M5.18247 1.33286C5.18247 0.596481 5.77942 -0.000473022 6.5158 -0.000473022H21.0613C21.7976 -0.000473022 22.3946 0.596481 22.3946 1.33286V18.3026C22.3946 19.0389 21.7976 19.6359 21.0613 19.6359C20.3249 19.6359 19.7279 19.0389 19.7279 18.3026V2.66619H6.5158C5.77942 2.66619 5.18247 2.06924 5.18247 1.33286Z" fill="#00204D" fill-opacity="0.6" style="mix-blend-mode:multiply"/>
</svg>
