<svg width="25" height="24" viewBox="0 0 25 24" fill="none" xmlns="http://www.w3.org/2000/svg">
<path d="M22.3515 19.6773L17.6064 14.9322C18.7966 13.2595 19.3148 11.2006 19.0584 9.16375C18.802 7.12688 17.7896 5.2607 16.222 3.93515C14.6543 2.6096 12.6458 1.92146 10.5946 2.00714C8.54347 2.09281 6.59937 2.94605 5.14771 4.39771C3.69605 5.84937 2.84281 7.79347 2.75714 9.84464C2.67146 11.8958 3.3596 13.9043 4.68515 15.472C6.0107 17.0396 7.87688 18.052 9.91375 18.3084C11.9506 18.5648 14.0095 18.0466 15.6822 16.8564L20.4273 21.6015C20.6825 21.8567 21.0286 22 21.3894 22C21.7503 22 22.0963 21.8567 22.3515 21.6015C22.6067 21.3463 22.75 21.0003 22.75 20.6394C22.75 20.2786 22.6067 19.9325 22.3515 19.6773ZM4.61429 10.2116C4.61429 8.95625 4.98655 7.72905 5.68401 6.68524C6.38146 5.64142 7.37278 4.82787 8.53261 4.34745C9.69244 3.86703 10.9687 3.74134 12.1999 3.98625C13.4312 4.23116 14.5622 4.83569 15.4499 5.72338C16.3376 6.61107 16.9421 7.74206 17.187 8.97333C17.4319 10.2046 17.3062 11.4808 16.8258 12.6407C16.3454 13.8005 15.5318 14.7918 14.488 15.4893C13.4442 16.1867 12.217 16.559 10.9616 16.559C9.2788 16.5571 7.66544 15.8877 6.4755 14.6978C5.28556 13.5078 4.61621 11.8945 4.61429 10.2116Z" fill="#00204D" fill-opacity="0.6" style="mix-blend-mode:multiply"/>
</svg>
