<svg width="25" height="24" viewBox="0 0 25 24" fill="none" xmlns="http://www.w3.org/2000/svg">
<g clip-path="url(#clip0_54_150)">
<path d="M2.22882 17.3224V6.89934C1.71315 6.87901 1.21235 6.86264 0.734706 6.848C0.469294 6.83991 0.25 7.05285 0.25 7.3184V19.4591C0.25 19.7092 0.445247 19.9156 0.694988 19.929C3.18257 20.063 6.45998 20.206 9.54788 20.9539C7.24341 19.1779 4.72106 18.3755 2.80482 18.016C2.47071 17.9535 2.22882 17.6617 2.22882 17.3224Z" fill="#366AE2"/>
<path d="M22.2712 6.8137V17.3224C22.2712 17.6617 22.0293 17.9535 21.6952 18.0161C19.7789 18.3756 17.2566 19.1779 14.9521 20.9539C18.0353 20.2071 21.3043 20.0637 23.805 19.929C24.0548 19.9155 24.25 19.7092 24.25 19.4591V7.26707C24.25 7.00754 24.04 6.79685 23.7805 6.79648C23.3631 6.79587 22.85 6.79977 22.2712 6.8137Z" fill="#366AE2"/>
<path d="M3.64059 3.51666V16.7459C5.97424 17.2589 8.96342 18.3775 11.5441 20.8005V6.91722C9.90648 4.85831 6.87071 3.5464 4.19834 3.05407C3.90836 3.00066 3.64059 3.22179 3.64059 3.51666Z" fill="#366AE2"/>
<path d="M20.3017 3.05411C17.6423 3.54461 14.5921 4.85416 12.9559 6.91722V20.8005C15.5366 18.3775 18.5258 17.2589 20.8594 16.7459V3.51675C20.8594 3.22188 20.5916 3.00065 20.3017 3.05411Z" fill="#366AE2"/>
</g>
<defs>
<clipPath id="clip0_54_150">
<rect width="24" height="24" fill="white" transform="translate(0.25)"/>
</clipPath>
</defs>
</svg>
