<svg width="24" height="24" viewBox="0 0 24 24" fill="none" xmlns="http://www.w3.org/2000/svg">
<path fill-rule="evenodd" clip-rule="evenodd" d="M22 11.3333C22 6.55739 17.3788 3 12 3C6.62117 3 2 6.55739 2 11.3333C2 13.2934 2.83348 15.0521 4.12726 16.4603L3.51091 21.802L9.46697 19.3792C10.303 19.596 11.132 19.6667 12 19.6667C17.3788 19.6667 22 16.1093 22 11.3333ZM12 4.66667C16.7878 4.66667 20.3333 7.77594 20.3333 11.3333C20.3333 14.8907 16.7878 18 12 18C11.1348 18 10.3877 17.9213 9.65612 17.7018L9.37476 17.6174L5.48909 19.198L5.874 15.8622L5.58926 15.5774C4.37683 14.365 3.66667 12.9002 3.66667 11.3333C3.66667 7.77594 7.21216 4.66667 12 4.66667Z" fill="#00204D" fill-opacity="0.6" style="mix-blend-mode:multiply"/>
</svg>
