<svg width="16" height="16" viewBox="0 0 16 16" fill="none" xmlns="http://www.w3.org/2000/svg">
<path d="M14.1904 5.75152L10.257 5.17992L8.49993 1.61807C8.44885 1.53133 8.37601 1.45943 8.28862 1.40948C8.20123 1.35953 8.10231 1.33325 8.00165 1.33325C7.90099 1.33325 7.80207 1.35953 7.71468 1.40948C7.62729 1.45943 7.55445 1.53133 7.50337 1.61807L5.743 5.17992L1.80953 5.75152C1.70695 5.76633 1.61056 5.80954 1.53125 5.87626C1.45195 5.94299 1.39289 6.03057 1.36076 6.1291C1.32863 6.22763 1.3247 6.33319 1.34943 6.43384C1.37415 6.53449 1.42654 6.62621 1.50067 6.69864L4.34759 9.4728L3.676 13.3907C3.65849 13.4929 3.66992 13.5979 3.70898 13.6939C3.74805 13.7899 3.81319 13.8731 3.89705 13.934C3.9809 13.9949 4.08013 14.0311 4.1835 14.0386C4.28688 14.046 4.39028 14.0244 4.48202 13.9762L7.99998 12.127L11.5179 13.9762C11.6097 14.0244 11.7131 14.046 11.8165 14.0386C11.9198 14.0311 12.0191 13.9949 12.1029 13.934C12.1868 13.8731 12.2519 13.7899 12.291 13.6939C12.3301 13.5979 12.3415 13.4929 12.324 13.3907L11.6524 9.4728L14.4993 6.69864C14.5734 6.62629 14.6258 6.53465 14.6506 6.43408C14.6754 6.33352 14.6715 6.22802 14.6395 6.12952C14.6075 6.03101 14.5486 5.94342 14.4695 5.87663C14.3903 5.80983 14.294 5.7665 14.1916 5.75152H14.1904Z" fill="#FC6B03"/>
</svg>
