<svg width="16" height="16" viewBox="0 0 16 16" fill="none" xmlns="http://www.w3.org/2000/svg">
<path fill-rule="evenodd" clip-rule="evenodd" d="M8.60665 1.93937C8.60665 1.60466 8.33531 1.33331 8.00059 1.33331C7.66587 1.33331 7.39453 1.60466 7.39453 1.93937V7.39386H1.94004C1.60533 7.39386 1.33398 7.6652 1.33398 7.99992C1.33398 8.33464 1.60533 8.60598 1.94004 8.60598H7.39453V14.0606C7.39453 14.3953 7.66587 14.6666 8.00059 14.6666C8.33531 14.6666 8.60665 14.3953 8.60665 14.0606V8.60598H14.0613C14.396 8.60598 14.6673 8.33464 14.6673 7.99992C14.6673 7.6652 14.396 7.39386 14.0613 7.39386H8.60665V1.93937Z" fill="#366AE2"/>
</svg>
