<svg width="15" height="18" viewBox="0 0 15 18" fill="none" xmlns="http://www.w3.org/2000/svg">
<path d="M12.6389 0.666992H2.91681C2.36428 0.666992 1.83438 0.886483 1.44368 1.27718C1.05299 1.66788 0.833496 2.19777 0.833496 2.7503V16.9863C0.833464 17.0484 0.850106 17.1094 0.881685 17.1629C0.913265 17.2164 0.958625 17.2605 1.01303 17.2905C1.06744 17.3205 1.12891 17.3354 1.19101 17.3335C1.25312 17.3317 1.3136 17.3132 1.36613 17.28L7.77787 13.2307L14.1896 17.28C14.245 17.3152 14.3094 17.3338 14.375 17.3335C14.4671 17.3335 14.5554 17.2969 14.6205 17.2318C14.6857 17.1667 14.7222 17.0784 14.7222 16.9863V2.7503C14.7222 2.19777 14.5027 1.66788 14.1121 1.27718C13.7214 0.886483 13.1915 0.666992 12.6389 0.666992V0.666992Z" fill="#00204D" fill-opacity="0.6" style="mix-blend-mode:multiply"/>
</svg>
