<svg width="20" height="20" viewBox="0 0 20 20" fill="none" xmlns="http://www.w3.org/2000/svg">
<path fill-rule="evenodd" clip-rule="evenodd" d="M10.0007 3.05686C8.50217 3.05686 7.33398 4.27372 7.33398 5.83464V8.61241C7.33398 10.1733 8.50217 11.3902 10.0007 11.3902C11.4991 11.3902 12.6673 10.1733 12.6673 8.61241V5.83464C12.6673 4.27372 11.4991 3.05686 10.0007 3.05686ZM6.00065 5.83464C6.00065 3.50666 7.76579 1.66797 10.0007 1.66797C12.2355 1.66797 14.0007 3.50666 14.0007 5.83464V8.61241C14.0007 10.9404 12.2355 12.7791 10.0007 12.7791C7.76579 12.7791 6.00065 10.9404 6.00065 8.61241V5.83464Z" fill="#BFBFBF"/>
<path fill-rule="evenodd" clip-rule="evenodd" d="M4.66732 7.91797V8.61241C4.66732 11.7011 7.03551 14.168 10.0007 14.168C12.9658 14.168 15.334 11.7011 15.334 8.61241V7.91797H16.6673V8.61241C16.6673 12.4682 13.7022 15.5569 10.0007 15.5569C6.29913 15.5569 3.33398 12.4682 3.33398 8.61241V7.91797H4.66732Z" fill="#BFBFBF"/>
<path fill-rule="evenodd" clip-rule="evenodd" d="M6.00065 16.9457H14.0007V18.3346H6.00065V16.9457Z" fill="#BFBFBF"/>
<path fill-rule="evenodd" clip-rule="evenodd" d="M10.6673 14.168V18.3346H9.33398V14.168H10.6673Z" fill="#BFBFBF"/>
</svg>
