<svg width="25" height="24" viewBox="0 0 25 24" fill="none" xmlns="http://www.w3.org/2000/svg">
<g clip-path="url(#clip0_54_923)">
<path d="M23.5687 5.72599C23.5236 5.72443 22.5967 5.69314 21.236 5.72321V2.93347C21.236 2.52222 20.8849 2.19606 20.4714 2.23003C17.7584 2.45653 14.3067 3.65535 12.25 5.84194C10.1933 3.65535 6.74162 2.45653 4.02859 2.23003C3.61588 2.19643 3.26398 2.52114 3.26398 2.93347V5.79865C2.49089 5.76947 1.75965 5.74891 0.976824 5.72589C0.582 5.71342 0.25 6.03145 0.25 6.43145V19.2865C0.25 19.658 0.537859 19.9659 0.908494 19.9908C3.7164 20.1798 8.41988 20.201 11.9731 21.7165C12.2898 21.8518 12.574 21.6964 12.527 21.7165C16.0801 20.2011 20.7828 20.1799 23.5916 19.9908C23.9622 19.9659 24.2501 19.658 24.2501 19.2865V6.43145C24.25 6.05116 23.9488 5.73926 23.5687 5.72599ZM19.8243 3.7274V15.8257C17.7887 16.281 15.209 17.2527 12.9559 19.313C12.9559 18.6915 12.9559 7.51554 12.9559 7.17945C14.5004 5.25239 17.4253 4.09088 19.8243 3.7274ZM4.67574 3.7274C7.07466 4.09088 9.99965 5.25239 11.5441 7.17945V19.313C9.29104 17.2527 6.71132 16.281 4.67574 15.8257V3.7274ZM1.66176 18.6223V7.15841C2.16722 7.17338 2.70784 7.19027 3.26398 7.21149V16.401C3.26398 16.7406 3.50586 17.0321 3.83965 17.0947C5.45146 17.3973 7.54746 18.0539 9.50096 19.4679C6.71391 18.8428 3.79664 18.7423 1.66176 18.6223ZM22.8382 18.6223C20.7068 18.7421 17.7872 18.8425 14.999 19.4679C16.9525 18.0539 19.0485 17.3973 20.6603 17.0947C20.9941 17.0321 21.236 16.7406 21.236 16.401V7.13545C21.8857 7.12091 22.439 7.12072 22.8382 7.12434V18.6223H22.8382Z" fill="#00204D" fill-opacity="0.6" style="mix-blend-mode:multiply"/>
</g>
<defs>
<clipPath id="clip0_54_923">
<rect width="24" height="24" fill="white" transform="translate(0.25)"/>
</clipPath>
</defs>
</svg>
