<svg width="24" height="24" viewBox="0 0 24 24" fill="none" xmlns="http://www.w3.org/2000/svg">
<g clip-path="url(#clip0_1229_8458)">
<path fill-rule="evenodd" clip-rule="evenodd" d="M3 5.79999C2.4 5.79999 2 6.19999 2 6.79999V11.8C2 12.4 2.4 12.8 3 12.8H10C10.6 12.8 11 12.4 11 11.8V6.79999C11 6.19999 10.6 5.79999 10 5.79999H3Z" fill="#00204D" fill-opacity="0.6"/>
<path fill-rule="evenodd" clip-rule="evenodd" d="M13 6.79999C13 6.19999 13.4 5.79999 14 5.79999H21C21.6 5.79999 22 6.19999 22 6.79999V11.8C22 12.4 21.6 12.8 21 12.8H14C13.4 12.8 13 12.4 13 11.8V6.79999ZM15 7.79999V10.8H20V7.79999H15Z" fill="#00204D" fill-opacity="0.6"/>
<path d="M21 16.3H8.8C8.4 15.4 7.5 14.8 6.5 14.8C5.5 14.8 4.6 15.4 4.2 16.3H3C2.4 16.3 2 16.7 2 17.3C2 17.9 2.4 18.3 3 18.3H4.2C4.6 19.2 5.5 19.8 6.5 19.8C7.5 19.8 8.4 19.2 8.8 18.3H21C21.6 18.3 22 17.9 22 17.3C22 16.7 21.6 16.3 21 16.3Z" fill="#00204D" fill-opacity="0.6"/>
<path d="M6.5 18.3C7.05228 18.3 7.5 17.8523 7.5 17.3C7.5 16.7477 7.05228 16.3 6.5 16.3C5.94772 16.3 5.5 16.7477 5.5 17.3C5.5 17.8523 5.94772 18.3 6.5 18.3Z" fill="white"/>
</g>
<defs>
<clipPath id="clip0_1229_8458">
<rect width="24" height="24" fill="white"/>
</clipPath>
</defs>
</svg>
