<svg width="25" height="24" viewBox="0 0 25 24" fill="none" xmlns="http://www.w3.org/2000/svg">
<path fill-rule="evenodd" clip-rule="evenodd" d="M8.16667 3C6.80797 3 5.52079 3.29248 4.54296 3.81806C3.5939 4.32818 2.75 5.1756 2.75 6.33333V20.5C2.75 20.9602 3.1231 21.3333 3.58333 21.3333C4.04357 21.3333 4.41667 20.9602 4.41667 20.5C4.41667 20.2411 4.61443 19.8385 5.33204 19.4528C6.02088 19.0825 7.02537 18.8333 8.16667 18.8333C9.30797 18.8333 10.3125 19.0825 11.0013 19.4528C11.7189 19.8385 11.9167 20.2411 11.9167 20.5C11.9167 20.9602 12.2898 21.3333 12.75 21.3333C13.2102 21.3333 13.5833 20.9602 13.5833 20.5C13.5833 20.2411 13.7811 19.8385 14.4987 19.4528C15.1875 19.0825 16.192 18.8333 17.3333 18.8333C18.4746 18.8333 19.4791 19.0825 20.168 19.4528C20.8856 19.8385 21.0833 20.2411 21.0833 20.5C21.0833 20.9602 21.4564 21.3333 21.9167 21.3333C22.3769 21.3333 22.75 20.9602 22.75 20.5V6.33333C22.75 5.1756 21.9061 4.32818 20.957 3.81806C19.9792 3.29248 18.692 3 17.3333 3C15.9746 3 14.6875 3.29248 13.7096 3.81806C13.3639 4.0039 13.0321 4.23449 12.75 4.50855C12.4679 4.23449 12.1361 4.0039 11.7904 3.81806C10.8125 3.29248 9.52537 3 8.16667 3ZM4.54296 17.9847C4.50063 18.0075 4.45851 18.0309 4.41667 18.055V6.33333C4.41667 6.0744 4.61443 5.67182 5.33204 5.2861C6.02088 4.91585 7.02537 4.66667 8.16667 4.66667C9.30797 4.66667 10.3125 4.91585 11.0013 5.2861C11.7189 5.67182 11.9167 6.0744 11.9167 6.33333V18.055C11.8748 18.0309 11.8327 18.0075 11.7904 17.9847C10.8125 17.4592 9.52537 17.1667 8.16667 17.1667C6.80797 17.1667 5.52079 17.4592 4.54296 17.9847ZM13.5833 18.055C13.6252 18.0309 13.6673 18.0075 13.7096 17.9847C14.6875 17.4592 15.9746 17.1667 17.3333 17.1667C18.692 17.1667 19.9792 17.4592 20.957 17.9847C20.9994 18.0075 21.0415 18.0309 21.0833 18.055V6.33333C21.0833 6.0744 20.8856 5.67182 20.168 5.2861C19.4791 4.91585 18.4746 4.66667 17.3333 4.66667C16.192 4.66667 15.1875 4.91585 14.4987 5.2861C13.7811 5.67182 13.5833 6.0744 13.5833 6.33333V18.055Z" fill="#00204D" fill-opacity="0.6" style="mix-blend-mode:multiply"/>
</svg>
