<svg width="20" height="20" viewBox="0 0 20 20" fill="none" xmlns="http://www.w3.org/2000/svg">
<path d="M18.0625 12.2209L16.7832 11.1272C16.8438 10.7561 16.875 10.3772 16.875 9.99829C16.875 9.61938 16.8438 9.24048 16.7832 8.86938L18.0625 7.77563C18.159 7.69303 18.2281 7.58301 18.2605 7.4602C18.2929 7.33739 18.2872 7.20762 18.2441 7.08813L18.2266 7.03735C17.8744 6.05303 17.347 5.14055 16.6699 4.34399L16.6348 4.30298C16.5526 4.2064 16.4432 4.13698 16.3208 4.10385C16.1984 4.07073 16.0689 4.07546 15.9492 4.11743L14.3613 4.68188C13.7754 4.20142 13.1211 3.82251 12.4141 3.55688L12.1074 1.89673C12.0843 1.77181 12.0237 1.65689 11.9337 1.56723C11.8437 1.47757 11.7285 1.41743 11.6035 1.39478L11.5508 1.38501C10.5332 1.20142 9.46289 1.20142 8.44532 1.38501L8.39258 1.39478C8.26758 1.41743 8.15242 1.47757 8.06241 1.56723C7.97241 1.65689 7.91181 1.77181 7.88867 1.89673L7.58008 3.5647C6.87869 3.83038 6.22552 4.20908 5.64649 4.68579L4.04688 4.11743C3.92728 4.07513 3.79764 4.07023 3.67519 4.10337C3.55274 4.13651 3.44327 4.20613 3.36133 4.30298L3.32618 4.34399C2.6499 5.14111 2.12261 6.05344 1.76954 7.03735L1.75196 7.08813C1.66407 7.33228 1.73633 7.60571 1.9336 7.77563L3.22852 8.8811C3.16797 9.24829 3.13868 9.62329 3.13868 9.99634C3.13868 10.3713 3.16797 10.7463 3.22852 11.1116L1.9336 12.217C1.8371 12.2996 1.76804 12.4097 1.7356 12.5325C1.70315 12.6553 1.70886 12.7851 1.75196 12.9045L1.76954 12.9553C2.12305 13.9397 2.64649 14.8479 3.32618 15.6487L3.36133 15.6897C3.44347 15.7863 3.55294 15.8557 3.67532 15.8888C3.7977 15.9219 3.92724 15.9172 4.04688 15.8752L5.64649 15.3069C6.22852 15.7854 6.87891 16.1643 7.58008 16.428L7.88867 18.0959C7.91181 18.2209 7.97241 18.3358 8.06241 18.4254C8.15242 18.5151 8.26758 18.5753 8.39258 18.5979L8.44532 18.6077C9.47224 18.7922 10.5239 18.7922 11.5508 18.6077L11.6035 18.5979C11.7285 18.5753 11.8437 18.5151 11.9337 18.4254C12.0237 18.3358 12.0843 18.2209 12.1074 18.0959L12.4141 16.4358C13.1208 16.1709 13.7788 15.7907 14.3613 15.3108L15.9492 15.8752C16.0688 15.9175 16.1985 15.9224 16.3209 15.8893C16.4434 15.8562 16.5528 15.7865 16.6348 15.6897L16.6699 15.6487C17.3496 14.8459 17.873 13.9397 18.2266 12.9553L18.2441 12.9045C18.332 12.6643 18.2598 12.3909 18.0625 12.2209V12.2209ZM15.3965 9.09985C15.4453 9.39478 15.4707 9.69751 15.4707 10.0002C15.4707 10.303 15.4453 10.6057 15.3965 10.9006L15.2676 11.6838L16.7266 12.9319C16.5054 13.4414 16.2262 13.9238 15.8945 14.3694L14.082 13.7268L13.4688 14.2307C13.002 14.6135 12.4824 14.9143 11.9199 15.1252L11.1758 15.4045L10.8262 17.2991C10.2746 17.3616 9.71764 17.3616 9.16602 17.2991L8.81641 15.4006L8.07813 15.1174C7.52149 14.9065 7.00391 14.6057 6.54102 14.2249L5.92774 13.719L4.10352 14.3674C3.77149 13.9202 3.49414 13.4377 3.27149 12.9299L4.7461 11.6702L4.61914 10.8889C4.57227 10.5979 4.54688 10.2971 4.54688 10.0002C4.54688 9.70142 4.57032 9.40259 4.61914 9.11157L4.7461 8.33032L3.27149 7.07056C3.49219 6.56079 3.77149 6.08032 4.10352 5.63306L5.92774 6.28149L6.54102 5.77563C7.00391 5.39478 7.52149 5.09399 8.07813 4.88306L8.81836 4.60376L9.16797 2.70532C9.7168 2.64282 10.2773 2.64282 10.8281 2.70532L11.1777 4.59985L11.9219 4.87915C12.4824 5.09009 13.0039 5.39087 13.4707 5.77368L14.084 6.27759L15.8965 5.63501C16.2285 6.08228 16.5059 6.5647 16.7285 7.07251L15.2695 8.32056L15.3965 9.09985ZM10 6.36743C8.10157 6.36743 6.5625 7.90649 6.5625 9.80493C6.5625 11.7034 8.10157 13.2424 10 13.2424C11.8984 13.2424 13.4375 11.7034 13.4375 9.80493C13.4375 7.90649 11.8984 6.36743 10 6.36743ZM11.5469 11.3518C11.344 11.5553 11.1029 11.7166 10.8374 11.8266C10.5719 11.9365 10.2873 11.9929 10 11.9924C9.41602 11.9924 8.86719 11.7639 8.45313 11.3518C8.24966 11.1489 8.08831 10.9078 7.97837 10.6423C7.86842 10.3769 7.81206 10.0923 7.8125 9.80493C7.8125 9.22095 8.04102 8.67212 8.45313 8.25806C8.86719 7.84399 9.41602 7.61743 10 7.61743C10.584 7.61743 11.1328 7.84399 11.5469 8.25806C11.7503 8.46094 11.9117 8.70206 12.0216 8.96753C12.1316 9.233 12.188 9.51759 12.1875 9.80493C12.1875 10.3889 11.959 10.9377 11.5469 11.3518Z" fill="#1890FF"/>
</svg>
