<svg width="32" height="32" viewBox="0 0 32 32" fill="none" xmlns="http://www.w3.org/2000/svg">
<path d="M21.3327 7.73536V5.55961C21.3327 5.37103 21.1601 5.26689 21.0436 5.38229L10.9417 15.2928C10.8558 15.3766 10.7864 15.484 10.7386 15.6066C10.6908 15.7293 10.666 15.8641 10.666 16.0007C10.666 16.1372 10.6908 16.272 10.7386 16.3947C10.7864 16.5173 10.8558 16.6247 10.9417 16.7085L21.0436 26.619C21.1624 26.7344 21.3327 26.6303 21.3327 26.4417V24.2659C21.3327 24.128 21.2811 23.9957 21.196 23.9113L13.1288 16.0021L21.196 8.09001C21.2811 8.00557 21.3327 7.87328 21.3327 7.73536Z" fill="black"/>
</svg>
