<svg width="32" height="32" viewBox="0 0 32 32" fill="none" xmlns="http://www.w3.org/2000/svg">
<path d="M21.057 15.2913L10.9551 5.38205C10.9287 5.35595 10.897 5.33973 10.8636 5.33525C10.8302 5.33077 10.7964 5.33822 10.7662 5.35674C10.7361 5.37525 10.7106 5.40409 10.6929 5.43993C10.6752 5.47577 10.6659 5.51716 10.666 5.55935V7.73483C10.666 7.87273 10.7176 8.00501 10.8027 8.08944L18.8699 16.0005L10.8027 23.9116C10.7153 23.9961 10.666 24.1283 10.666 24.2662V26.4417C10.666 26.6303 10.8386 26.7344 10.9551 26.619L21.057 16.7097C21.1428 16.6256 21.2123 16.518 21.2601 16.3951C21.3079 16.2722 21.3327 16.1373 21.3327 16.0005C21.3327 15.8638 21.3079 15.7288 21.2601 15.6059C21.2123 15.483 21.1428 15.3754 21.057 15.2913Z" fill="#1890FF"/>
</svg>
