<svg width="25" height="24" viewBox="0 0 25 24" fill="none" xmlns="http://www.w3.org/2000/svg">
<path fill-rule="evenodd" clip-rule="evenodd" d="M7.2817 3.6878C7.05788 3.6878 6.84323 3.77671 6.68497 3.93497C6.52671 4.09323 6.4378 4.30788 6.4378 4.5317V19.1316L13.189 15.3809L19.9402 19.1316V4.5317C19.9402 4.30788 19.8513 4.09323 19.693 3.93497C19.5347 3.77671 19.3201 3.6878 19.0963 3.6878H7.2817ZM5.49152 2.74152C5.9663 2.26673 6.61025 2 7.2817 2H19.0963C19.7677 2 20.4117 2.26673 20.8865 2.74152C21.3613 3.2163 21.628 3.86025 21.628 4.5317V22L13.189 17.3117L4.75 22V4.5317C4.75 3.86025 5.01673 3.2163 5.49152 2.74152Z" fill="#00204D" fill-opacity="0.6" style="mix-blend-mode:multiply"/>
</svg>
