<svg width="16" height="16" viewBox="0 0 16 16" fill="none" xmlns="http://www.w3.org/2000/svg">
<path d="M7.54803 12.3486L13.4574 6.43768C13.484 6.41111 13.4965 6.37518 13.4933 6.33924L13.0949 1.62986C13.084 1.50799 12.9887 1.41268 12.8668 1.40174L8.15741 1.00486C8.12147 1.00174 8.08397 1.01424 8.05897 1.0408L2.14959 6.95018C2.12633 6.97367 2.11328 7.0054 2.11328 7.03846C2.11328 7.07152 2.12633 7.10325 2.14959 7.12674L7.37147 12.3486C7.41991 12.3986 7.4996 12.3986 7.54803 12.3486ZM9.46522 4.01424C9.75741 3.72205 10.2324 3.72205 10.5262 4.01424C10.8183 4.30643 10.8183 4.78143 10.5262 5.07518C10.234 5.36736 9.75897 5.36736 9.46522 5.07518C9.17303 4.78299 9.17303 4.30799 9.46522 4.01424ZM13.8996 8.43455L13.2808 7.81736C13.2574 7.7941 13.2256 7.78105 13.1926 7.78105C13.1595 7.78105 13.1278 7.7941 13.1043 7.81736L7.44803 13.4627L3.73553 9.75955C3.71204 9.73629 3.68031 9.72324 3.64725 9.72324C3.61419 9.72324 3.58246 9.73629 3.55897 9.75955L2.94022 10.3767C2.91696 10.4002 2.90391 10.432 2.90391 10.465C2.90391 10.4981 2.91696 10.5298 2.94022 10.5533L6.74022 14.3471L7.35897 14.9642C7.40741 15.0127 7.48709 15.0127 7.53553 14.9642L13.8996 8.61111C13.948 8.56268 13.948 8.48299 13.8996 8.43455Z" fill="#1890FF"/>
</svg>
