<svg width="16" height="16" viewBox="0 0 16 16" fill="none" xmlns="http://www.w3.org/2000/svg">
<path d="M8.00016 1.33333C6.68162 1.33333 5.39269 1.72432 4.29636 2.45686C3.20004 3.18941 2.34555 4.2306 1.84097 5.44877C1.33638 6.66694 1.20436 8.00739 1.4616 9.30059C1.71883 10.5938 2.35377 11.7817 3.28612 12.714C4.21847 13.6464 5.40636 14.2813 6.69956 14.5386C7.99277 14.7958 9.33321 14.6638 10.5514 14.1592C11.7696 13.6546 12.8108 12.8001 13.5433 11.7038C14.2758 10.6075 14.6668 9.31853 14.6668 7.99999C14.6617 6.23346 13.9577 4.54075 12.7085 3.29162C11.4594 2.04248 9.7667 1.33846 8.00016 1.33333V1.33333ZM10.7502 9.96444L9.96461 10.75L8.00016 8.78555L6.03572 10.75L5.25016 9.96444L7.21461 7.99999L5.25016 6.03555L6.03572 5.24999L8.00016 7.21444L9.96461 5.24999L10.7502 6.03555L8.78572 7.99999L10.7502 9.96444Z" fill="#E14337"/>
</svg>
