<svg width="25" height="24" viewBox="0 0 25 24" fill="none" xmlns="http://www.w3.org/2000/svg">
<path d="M11.9174 3.91912C10.7716 3.28471 9.47698 2.96824 8.1677 3.00252C5.08459 3.00252 2.75142 4.41908 2.75142 6.33561V20.5013C2.74474 20.6124 2.76171 20.7238 2.80122 20.8279C2.84074 20.932 2.90189 21.0266 2.98064 21.1053C3.05939 21.1841 3.15395 21.2452 3.25807 21.2847C3.3622 21.3243 3.47352 21.3412 3.58469 21.3345C3.69586 21.3412 3.80719 21.3243 3.91131 21.2847C4.01544 21.2452 4.11 21.1841 4.18875 21.1053C4.2675 21.0266 4.32865 20.932 4.36816 20.8279C4.40767 20.7238 4.42465 20.6124 4.41797 20.5013C4.41797 19.8347 5.91786 18.8347 8.1677 18.8347C9.05395 18.8208 9.93294 18.9964 10.7459 19.3497C10.8722 19.4077 11.0112 19.4329 11.1498 19.423C11.2885 19.4131 11.4225 19.3683 11.5393 19.2929C11.6561 19.2175 11.752 19.1138 11.8181 18.9915C11.8842 18.8691 11.9183 18.7321 11.9174 18.5931V3.91912Z" fill="#366AE2"/>
<path d="M17.3337 3.00252C16.0245 2.96824 14.7298 3.28471 13.584 3.91912V18.5931C13.5831 18.7321 13.6173 18.8691 13.6834 18.9915C13.7495 19.1138 13.8454 19.2175 13.9622 19.2929C14.079 19.3683 14.2129 19.4131 14.3516 19.423C14.4903 19.4329 14.6292 19.4077 14.7556 19.3497C15.5685 18.9964 16.4475 18.8208 17.3337 18.8347C19.5836 18.8347 21.0835 19.8347 21.0835 20.5013C21.0835 20.7223 21.1713 20.9342 21.3275 21.0905C21.4838 21.2468 21.6958 21.3345 21.9167 21.3345C22.1377 21.3345 22.3497 21.2468 22.506 21.0905C22.6622 20.9342 22.75 20.7223 22.75 20.5013V6.33561C22.75 4.41908 20.4169 3.00252 17.3337 3.00252Z" fill="#366AE2"/>
</svg>
