<svg width="24" height="24" viewBox="0 0 24 24" fill="none" xmlns="http://www.w3.org/2000/svg">
<path fill-rule="evenodd" clip-rule="evenodd" d="M2.00052 7.76832L4.86151 3H19.1385L21.9995 7.76832L22 7.99813C22.0017 8.74793 21.75 9.4763 21.2858 10.0651C20.8216 10.6539 20.1721 11.0687 19.4426 11.2421C18.7132 11.4155 17.9465 11.3373 17.267 11.0204C16.9658 10.8798 16.6895 10.6961 16.446 10.4766C16.2986 10.61 16.1389 10.7304 15.9685 10.8361C15.444 11.1613 14.8392 11.3335 14.2221 11.3335C13.605 11.3335 13.0002 11.1613 12.4757 10.8361C12.306 10.7309 12.1469 10.611 12 10.4782C11.8531 10.611 11.694 10.7309 11.5243 10.8361C10.9998 11.1613 10.395 11.3335 9.77792 11.3335C9.16083 11.3335 8.556 11.1613 8.03154 10.8361C7.86112 10.7304 7.70139 10.61 7.55398 10.4766C7.31048 10.6961 7.03422 10.8798 6.73301 11.0204C6.05351 11.3373 5.28685 11.4155 4.55738 11.2421C3.8279 11.0687 3.1784 10.6539 2.7142 10.0651C2.25 9.4763 1.99833 8.74793 2.00001 7.99813L2.00052 7.76832ZM5.80516 4.66667L3.67927 8.20981C3.71639 8.50923 3.83464 8.7943 4.02305 9.03329C4.25468 9.32711 4.57879 9.53406 4.94279 9.62059C5.3068 9.70711 5.68936 9.66812 6.02843 9.50995C6.3675 9.35178 6.64319 9.0837 6.81079 8.7492L7.55928 7.25534L8.30225 8.75195C8.43866 9.02671 8.64906 9.25794 8.90978 9.41958C9.17049 9.58123 9.47116 9.66687 9.77792 9.66687C10.0847 9.66687 10.3853 9.58123 10.6461 9.41958C10.9068 9.25794 11.1172 9.02671 11.2536 8.75195L12 7.2484L12.7464 8.75195C12.8828 9.02671 13.0932 9.25794 13.3539 9.41958C13.6147 9.58123 13.9153 9.66687 14.2221 9.66687C14.5288 9.66687 14.8295 9.58123 15.0902 9.41958C15.3509 9.25794 15.5613 9.02671 15.6977 8.75195L16.4407 7.25534L17.1892 8.7492C17.3568 9.0837 17.6325 9.35178 17.9716 9.50995C18.3106 9.66812 18.6932 9.70711 19.0572 9.62059C19.4212 9.53407 19.7453 9.32711 19.977 9.03329C20.1654 8.79429 20.2836 8.50923 20.3207 8.20981L18.1948 4.66667H5.80516Z" fill="#00204D" fill-opacity="0.6" style="mix-blend-mode:multiply"/>
<path fill-rule="evenodd" clip-rule="evenodd" d="M6.16666 12.1667V19.6667H9.5V14.6667H14.5V19.6667H17.8333V12.1667H19.5V21.3333H4.5V12.1667H6.16666ZM12.8333 19.6667V16.3333H11.1667V19.6667H12.8333Z" fill="#00204D" fill-opacity="0.6" style="mix-blend-mode:multiply"/>
</svg>
