<svg width="20" height="20" viewBox="0 0 20 20" fill="none" xmlns="http://www.w3.org/2000/svg">
<path  clip-rule="evenodd" d="M10.7576 2.42423C10.7576 2.00583 10.4184 1.66666 10 1.66666C9.58161 1.66666 9.24243 2.00583 9.24243 2.42423V9.24234H2.42432C2.00593 9.24234 1.66675 9.58152 1.66675 9.99992C1.66675 10.4183 2.00593 10.7575 2.42432 10.7575H9.24243V17.5757C9.24243 17.9941 9.58161 18.3333 10 18.3333C10.4184 18.3333 10.7576 17.9941 10.7576 17.5757V10.7575H17.5758C17.9942 10.7575 18.3334 10.4183 18.3334 9.99992C18.3334 9.58152 17.9942 9.24234 17.5758 9.24234H10.7576V2.42423Z" fill="black" fill-opacity="0.6" style="mix-blend-mode:multiply"/>
</svg>
