<svg width="20" height="20" viewBox="0 0 20 20" fill="none" xmlns="http://www.w3.org/2000/svg">
<path d="M3.3282 3.32817C3.4641 3.19228 3.64841 3.11593 3.8406 3.11593H13.9855C14.1777 3.11593 14.362 3.19228 14.4979 3.32817C14.6338 3.46407 14.7102 3.64838 14.7102 3.84057V4.56521C14.7102 4.96541 15.0346 5.28984 15.4348 5.28984C15.835 5.28984 16.1594 4.96541 16.1594 4.56521V3.84057C16.1594 3.26401 15.9304 2.71107 15.5227 2.30338C15.115 1.89569 14.5621 1.66666 13.9855 1.66666H3.8406C3.26404 1.66666 2.7111 1.89569 2.30341 2.30338C1.89572 2.71107 1.66669 3.26401 1.66669 3.84057V17.6087C1.66669 17.8654 1.80255 18.103 2.02384 18.2332C2.24513 18.3634 2.5188 18.3668 2.74324 18.2421L8.91306 14.8145L15.0829 18.2421C15.3073 18.3668 15.581 18.3634 15.8023 18.2332C16.0236 18.103 16.1594 17.8654 16.1594 17.6087V14.7101C16.1594 14.3099 15.835 13.9855 15.4348 13.9855C15.0346 13.9855 14.7102 14.3099 14.7102 14.7101V16.3772L9.26498 13.352C9.04612 13.2305 8.78001 13.2305 8.56115 13.352L3.11596 16.3772V3.84057C3.11596 3.64838 3.19231 3.46407 3.3282 3.32817Z" fill="#00204D" fill-opacity="0.6" style="mix-blend-mode:multiply"/>
<path d="M15.4344 6.73916C15.8346 6.73916 16.1591 7.06359 16.1591 7.46379V8.91307H17.6083C18.0085 8.91307 18.333 9.2375 18.333 9.63771C18.333 10.0379 18.0085 10.3623 17.6083 10.3623H16.1591V11.8116C16.1591 12.2118 15.8346 12.5363 15.4344 12.5363C15.0342 12.5363 14.7098 12.2118 14.7098 11.8116V10.3623H13.2605C12.8603 10.3623 12.5359 10.0379 12.5359 9.63771C12.5359 9.2375 12.8603 8.91307 13.2605 8.91307H14.7098V7.46379C14.7098 7.06359 15.0342 6.73916 15.4344 6.73916Z" fill="#00204D" fill-opacity="0.6" style="mix-blend-mode:multiply"/>
</svg>
