<svg width="25" height="24" viewBox="0 0 25 24" fill="none" xmlns="http://www.w3.org/2000/svg">
<path fill-rule="evenodd" clip-rule="evenodd" d="M16.1688 19.8905L14.517 12.531V19.7065C14.517 20.1707 14.1407 20.547 13.6765 20.547H3.5905C3.1263 20.547 2.75 20.1707 2.75 19.7065V4.57752C2.75 4.11332 3.1263 3.73702 3.5905 3.73702H13.6765C13.8946 3.73702 14.0933 3.82013 14.2427 3.9564L18.412 3.02059C18.8649 2.91893 19.3145 3.20368 19.4162 3.65659L21.6135 13.4463C21.6183 13.4629 21.6226 13.4797 21.6265 13.4968C21.6303 13.5139 21.6336 13.531 21.6364 13.5482L22.7294 18.4179C22.8311 18.8708 22.5463 19.3204 22.0934 19.4221L17.173 20.5265C16.7201 20.6281 16.2705 20.3434 16.1688 19.8905ZM19.8007 13.0454L17.9601 4.8448L14.6798 5.58108L16.5206 13.7821L19.8007 13.0454ZM16.8887 15.4223L20.1689 14.6856L20.9052 17.966L17.6249 18.7023L16.8887 15.4223ZM7.79298 18.866V15.504H4.43099V18.866H7.79298ZM7.79298 13.823V5.41802H4.43099V13.823H7.79298ZM9.47398 18.866H12.836V15.504H9.47398V18.866ZM9.47398 13.823H12.836V5.41802H9.47398V13.823Z" fill="#00204D" fill-opacity="0.6" style="mix-blend-mode:multiply"/>
</svg>
