<svg width="24" height="24" viewBox="0 0 24 24" fill="none" xmlns="http://www.w3.org/2000/svg">
<path fill-rule="evenodd" clip-rule="evenodd" d="M2 7.83333C2 4.6231 4.6231 2 7.83333 2C9.49094 2 10.9461 2.70147 12 3.77684C13.0539 2.70147 14.5091 2 16.1667 2C19.3769 2 22 4.6231 22 7.83333C22 9.31345 21.332 10.8796 20.4454 12.3304C19.5473 13.8001 18.3625 15.2507 17.1976 16.5214C16.0298 17.7955 14.8646 18.9074 13.9929 19.7C13.5564 20.0967 13.1922 20.4146 12.9362 20.634C12.8082 20.7438 12.7071 20.8289 12.6376 20.8871C12.6028 20.9162 12.5759 20.9386 12.5574 20.9539L12.536 20.9715L12.5302 20.9763L12.5285 20.9776C12.5284 20.9778 12.5277 20.9783 12 20.3333C11.4723 20.9783 11.4722 20.9782 11.472 20.978L11.4698 20.9763L11.464 20.9715L11.4426 20.9539C11.4241 20.9386 11.3972 20.9162 11.3624 20.8871C11.2929 20.8289 11.1918 20.7438 11.0638 20.634C10.8078 20.4146 10.4436 20.0967 10.0071 19.7C9.13536 18.9074 7.97022 17.7955 6.80237 16.5214C5.63751 15.2507 4.45274 13.8001 3.55456 12.3304C2.66799 10.8796 2 9.31345 2 7.83333ZM12 20.3333L11.472 20.978C11.779 21.2292 12.2207 21.2295 12.5277 20.9783L12 20.3333ZM12 19.2407C12.2309 19.0409 12.5278 18.7794 12.8717 18.4667C13.7187 17.6967 14.8452 16.6212 15.969 15.3952C17.0958 14.166 18.2027 12.804 19.0233 11.4613C19.8555 10.0995 20.3333 8.85322 20.3333 7.83333C20.3333 5.54357 18.4564 3.66667 16.1667 3.66667C14.7221 3.66667 13.4664 4.42139 12.6867 5.55544C12.5312 5.78157 12.2744 5.91667 12 5.91667C11.7256 5.91667 11.4688 5.78157 11.3133 5.55544C10.5336 4.42139 9.27788 3.66667 7.83333 3.66667C5.54357 3.66667 3.66667 5.54357 3.66667 7.83333C3.66667 8.85322 4.14451 10.0995 4.97669 11.4613C5.79726 12.804 6.90416 14.166 8.03096 15.3952C9.15478 16.6212 10.2813 17.6967 11.1283 18.4667C11.4722 18.7794 11.7691 19.0409 12 19.2407Z" fill="#00204D" fill-opacity="0.6" style="mix-blend-mode:multiply"/>
</svg>
