<svg width="24" height="24" viewBox="0 0 24 24" fill="none" xmlns="http://www.w3.org/2000/svg">
<path d="M22 11.9989C21.9998 10.0879 21.452 8.21695 20.4215 6.6076C19.391 4.99825 17.921 3.71787 16.1854 2.91805C14.4498 2.11822 12.5214 1.83244 10.6285 2.09454C8.73552 2.35664 6.95732 3.15564 5.50437 4.39696C4.05142 5.63828 2.98457 7.26992 2.43013 9.09872C1.87569 10.9275 1.85687 12.8769 2.37591 14.7161C2.89494 16.5552 3.93009 18.2072 5.35881 19.4763C6.78752 20.7454 8.54997 21.5786 10.4375 21.8772V14.8897H7.89833V11.9989H10.4375V9.79555C10.4375 7.28971 11.9308 5.90471 14.2142 5.90471C14.9643 5.91547 15.7126 5.98064 16.4533 6.09971V8.56138H15.1917C14.8119 8.51096 14.4276 8.61344 14.1233 8.84628C13.8191 9.07913 13.6197 9.42327 13.5692 9.80305C13.5549 9.9094 13.5526 10.017 13.5625 10.1239V11.9989H16.3333L15.89 14.8897H13.5567V21.8772C15.91 21.5064 18.0537 20.3075 19.6016 18.4965C21.1495 16.6854 22.0001 14.3813 22 11.9989Z" fill="white"/>
</svg>
