<svg width="14" height="14" viewBox="0 0 14 14" fill="none" xmlns="http://www.w3.org/2000/svg">
<path fill-rule="evenodd" clip-rule="evenodd" d="M7.00065 0.333313C7.23136 0.333313 7.44205 0.464297 7.54414 0.671185L9.27586 4.18057L13.1484 4.74324C13.3767 4.77641 13.5663 4.93631 13.6376 5.1557C13.7089 5.3751 13.6495 5.61595 13.4843 5.77698L10.6821 8.50852L11.3434 12.3654C11.3824 12.5928 11.2889 12.8226 11.1023 12.9582C10.9156 13.0938 10.6682 13.1116 10.464 13.0042L7.00065 11.1829L3.5373 13.0042C3.33311 13.1116 3.08567 13.0938 2.89902 12.9582C2.71236 12.8226 2.61888 12.5928 2.65786 12.3654L3.31917 8.50852L0.517016 5.77698C0.351825 5.61595 0.292377 5.3751 0.363668 5.1557C0.434959 4.93631 0.624624 4.77641 0.852918 4.74324L4.72544 4.18057L6.45716 0.671185C6.55925 0.464297 6.76995 0.333313 7.00065 0.333313ZM7.00065 2.30897L5.67142 5.0027C5.58314 5.18159 5.41249 5.30559 5.21507 5.33427L2.24244 5.76619L4.3934 7.86295C4.53623 8.00217 4.60141 8.20276 4.5677 8.39935L4.0601 11.3598L6.71856 9.96173C6.89516 9.86886 7.10615 9.86886 7.28274 9.96173L9.94121 11.3598L9.4336 8.39935C9.3999 8.20276 9.46508 8.00217 9.6079 7.86295L11.7589 5.76619L8.78623 5.33427C8.58881 5.30559 8.41816 5.18159 8.32988 5.0027L7.00065 2.30897Z" fill="#00204D" fill-opacity="0.6" style="mix-blend-mode:multiply"/>
</svg>
