<svg width="14" height="14" viewBox="0 0 14 14" fill="none" xmlns="http://www.w3.org/2000/svg">
<g id="Group">
<g id="Vector (Stroke)">
<path fill-rule="evenodd" clip-rule="evenodd" d="M7.00016 0.333344C7.23087 0.333344 7.44157 0.464327 7.54365 0.671215L9.27537 4.1806L13.1479 4.74327C13.3762 4.77644 13.5659 4.93634 13.6371 5.15574C13.7084 5.37513 13.649 5.61598 13.4838 5.77701L10.6816 8.50855L11.3429 12.3654C11.3819 12.5928 11.2884 12.8226 11.1018 12.9582C10.9151 13.0938 10.6677 13.1116 10.4635 13.0043L7.00016 11.1829L3.53681 13.0043C3.33262 13.1116 3.08518 13.0938 2.89853 12.9582C2.71188 12.8226 2.61839 12.5928 2.65738 12.3654L3.31868 8.50855L0.516527 5.77701C0.351336 5.61598 0.291888 5.37513 0.363179 5.15574C0.43447 4.93634 0.624136 4.77644 0.852429 4.74327L4.72496 4.1806L6.45667 0.671215C6.55876 0.464327 6.76946 0.333344 7.00016 0.333344ZM7.00016 2.309L5.67093 5.00273C5.58266 5.18162 5.412 5.30562 5.21458 5.3343L2.24195 5.76622L4.39291 7.86298C4.53574 8.0022 4.60092 8.20279 4.56721 8.39938L4.05961 11.3598L6.71807 9.96176C6.89467 9.86889 7.10566 9.86889 7.28225 9.96176L9.94072 11.3598L9.43312 8.39938C9.39941 8.20279 9.46459 8.0022 9.60741 7.86298L11.7584 5.76622L8.78574 5.3343C8.58833 5.30562 8.41767 5.18162 8.32939 5.00273L7.00016 2.309Z" fill="#00204D" fill-opacity="0.6" style="mix-blend-mode:multiply"/>
</g>
</g>
</svg>
