<svg width="16" height="16" viewBox="0 0 16 16" fill="none" xmlns="http://www.w3.org/2000/svg">
<path d="M5.06667 1.46671C4.96762 1.39242 4.84984 1.34719 4.72654 1.33607C4.60323 1.32495 4.47926 1.34839 4.36852 1.40376C4.25779 1.45912 4.16466 1.54424 4.09957 1.64955C4.03448 1.75487 4 1.87623 4 2.00004V14C4 14.1238 4.03448 14.2452 4.09957 14.3505C4.16466 14.4558 4.25779 14.541 4.36852 14.5963C4.47926 14.6517 4.60323 14.6751 4.72654 14.664C4.84984 14.6529 4.96762 14.6077 5.06667 14.5334L13.0667 8.53337C13.1495 8.47128 13.2167 8.39075 13.2629 8.29818C13.3092 8.20561 13.3333 8.10354 13.3333 8.00004C13.3333 7.89654 13.3092 7.79447 13.2629 7.7019C13.2167 7.60933 13.1495 7.52881 13.0667 7.46671L5.06667 1.46671Z" fill="#00204D" fill-opacity="0.6" style="mix-blend-mode:multiply"/>
</svg>
