<svg width="16" height="16" viewBox="0 0 16 16" fill="none" xmlns="http://www.w3.org/2000/svg">
<path d="M9.25 1.75H3.52083C3.3827 1.75 3.25022 1.80487 3.15255 1.90255C3.05487 2.00022 3 2.1327 3 2.27083V13.7292C3 13.8673 3.05487 13.9998 3.15255 14.0975C3.25022 14.1951 3.3827 14.25 3.52083 14.25H12.8958C13.034 14.25 13.1664 14.1951 13.2641 14.0975C13.3618 13.9998 13.4167 13.8673 13.4167 13.7292V5.91667H9.77083C9.6327 5.91667 9.50022 5.86179 9.40255 5.76412C9.30487 5.66644 9.25 5.53397 9.25 5.39583V1.75ZM4.82292 10.6042H11.5938C11.6628 10.6042 11.7291 10.6316 11.7779 10.6804C11.8267 10.7293 11.8542 10.7955 11.8542 10.8646V11.3854C11.8542 11.4545 11.8267 11.5207 11.7779 11.5696C11.7291 11.6184 11.6628 11.6458 11.5938 11.6458H4.82292C4.75385 11.6458 4.68761 11.6184 4.63877 11.5696C4.58994 11.5207 4.5625 11.4545 4.5625 11.3854V10.8646C4.5625 10.7955 4.58994 10.7293 4.63877 10.6804C4.68761 10.6316 4.75385 10.6042 4.82292 10.6042ZM4.82292 8H11.5938C11.6628 8 11.7291 8.02744 11.7779 8.07627C11.8267 8.12511 11.8542 8.19135 11.8542 8.26042V8.78125C11.8542 8.85032 11.8267 8.91655 11.7779 8.96539C11.7291 9.01423 11.6628 9.04167 11.5938 9.04167H4.82292C4.75385 9.04167 4.68761 9.01423 4.63877 8.96539C4.58994 8.91655 4.5625 8.85032 4.5625 8.78125V8.26042C4.5625 8.19135 4.58994 8.12511 4.63877 8.07627C4.68761 8.02744 4.75385 8 4.82292 8ZM7.42708 6.4375H4.82292C4.75385 6.4375 4.68761 6.41006 4.63877 6.36123C4.58994 6.31239 4.5625 6.24615 4.5625 6.17708V5.65625C4.5625 5.58718 4.58994 5.52095 4.63877 5.47211C4.68761 5.42327 4.75385 5.39583 4.82292 5.39583H7.42708C7.49615 5.39583 7.56239 5.42327 7.61123 5.47211C7.66006 5.52095 7.6875 5.58718 7.6875 5.65625V6.17708C7.6875 6.24615 7.66006 6.31239 7.61123 6.36123C7.56239 6.41006 7.49615 6.4375 7.42708 6.4375Z" fill="#00204D" fill-opacity="0.6" style="mix-blend-mode:multiply"/>
<path d="M13.1115 4.875H10.2917V2.05521L13.1115 4.875Z" fill="#00204D" fill-opacity="0.6" style="mix-blend-mode:multiply"/>
</svg>
