<svg width="20" height="20" viewBox="0 0 20 20" fill="none" xmlns="http://www.w3.org/2000/svg">
<path d="M18.0625 12.2197L16.7832 11.126C16.8438 10.7549 16.875 10.376 16.875 9.99707C16.875 9.61816 16.8438 9.23926 16.7832 8.86816L18.0625 7.77441C18.159 7.69181 18.2281 7.58179 18.2605 7.45898C18.2929 7.33617 18.2872 7.2064 18.2441 7.08691L18.2266 7.03613C17.8744 6.05181 17.347 5.13933 16.6699 4.34277L16.6348 4.30176C16.5526 4.20518 16.4432 4.13575 16.3208 4.10263C16.1984 4.06951 16.0689 4.07424 15.9492 4.11621L14.3613 4.68066C13.7754 4.2002 13.1211 3.82129 12.4141 3.55566L12.1074 1.89551C12.0843 1.77059 12.0237 1.65567 11.9337 1.56601C11.8437 1.47635 11.7285 1.4162 11.6035 1.39355L11.5508 1.38379C10.5332 1.2002 9.46289 1.2002 8.44532 1.38379L8.39258 1.39355C8.26758 1.4162 8.15242 1.47635 8.06241 1.56601C7.97241 1.65567 7.91181 1.77059 7.88868 1.89551L7.58008 3.56348C6.87869 3.82916 6.22552 4.20786 5.64649 4.68457L4.04688 4.11621C3.92728 4.07391 3.79764 4.06901 3.67519 4.10215C3.55274 4.13529 3.44327 4.20491 3.36133 4.30176L3.32618 4.34277C2.6499 5.13989 2.12261 6.05222 1.76954 7.03613L1.75196 7.08691C1.66407 7.33105 1.73633 7.60449 1.9336 7.77441L3.22852 8.87988C3.16797 9.24707 3.13868 9.62207 3.13868 9.99512C3.13868 10.3701 3.16797 10.7451 3.22852 11.1104L1.9336 12.2158C1.8371 12.2984 1.76804 12.4084 1.7356 12.5313C1.70315 12.6541 1.70886 12.7838 1.75196 12.9033L1.76954 12.9541C2.12305 13.9385 2.64649 14.8467 3.32618 15.6475L3.36133 15.6885C3.44347 15.7851 3.55294 15.8545 3.67532 15.8876C3.7977 15.9207 3.92724 15.916 4.04688 15.874L5.64649 15.3057C6.22852 15.7842 6.87891 16.1631 7.58008 16.4268L7.88868 18.0947C7.91181 18.2196 7.97241 18.3346 8.06241 18.4242C8.15242 18.5139 8.26758 18.574 8.39258 18.5967L8.44532 18.6064C9.47224 18.791 10.5239 18.791 11.5508 18.6064L11.6035 18.5967C11.7285 18.574 11.8437 18.5139 11.9337 18.4242C12.0237 18.3346 12.0843 18.2196 12.1074 18.0947L12.4141 16.4346C13.1208 16.1696 13.7788 15.7895 14.3613 15.3096L15.9492 15.874C16.0688 15.9163 16.1985 15.9212 16.3209 15.8881C16.4434 15.8549 16.5528 15.7853 16.6348 15.6885L16.6699 15.6475C17.3496 14.8447 17.873 13.9385 18.2266 12.9541L18.2441 12.9033C18.332 12.6631 18.2598 12.3896 18.0625 12.2197ZM15.3965 9.09863C15.4453 9.39355 15.4707 9.69629 15.4707 9.99902C15.4707 10.3018 15.4453 10.6045 15.3965 10.8994L15.2676 11.6826L16.7266 12.9307C16.5054 13.4402 16.2262 13.9226 15.8945 14.3682L14.082 13.7256L13.4688 14.2295C13.002 14.6123 12.4824 14.9131 11.9199 15.124L11.1758 15.4033L10.8262 17.2979C10.2746 17.3604 9.71764 17.3604 9.16602 17.2979L8.81641 15.3994L8.07813 15.1162C7.52149 14.9053 7.00391 14.6045 6.54102 14.2236L5.92774 13.7178L4.10352 14.3662C3.77149 13.9189 3.49414 13.4365 3.27149 12.9287L4.7461 11.6689L4.61914 10.8877C4.57227 10.5967 4.54688 10.2959 4.54688 9.99902C4.54688 9.7002 4.57032 9.40137 4.61914 9.11035L4.7461 8.3291L3.27149 7.06934C3.49219 6.55957 3.77149 6.0791 4.10352 5.63184L5.92774 6.28027L6.54102 5.77441C7.00391 5.39355 7.52149 5.09277 8.07813 4.88184L8.81836 4.60254L9.16797 2.7041C9.7168 2.6416 10.2773 2.6416 10.8281 2.7041L11.1777 4.59863L11.9219 4.87793C12.4824 5.08887 13.0039 5.38965 13.4707 5.77246L14.084 6.27637L15.8965 5.63379C16.2285 6.08105 16.5059 6.56348 16.7285 7.07129L15.2695 8.31934L15.3965 9.09863ZM10 6.36621C8.10157 6.36621 6.5625 7.90527 6.5625 9.80371C6.5625 11.7021 8.10157 13.2412 10 13.2412C11.8984 13.2412 13.4375 11.7021 13.4375 9.80371C13.4375 7.90527 11.8984 6.36621 10 6.36621ZM11.5469 11.3506C11.344 11.5541 11.1029 11.7154 10.8374 11.8253C10.5719 11.9353 10.2873 11.9917 10 11.9912C9.41602 11.9912 8.86719 11.7627 8.45313 11.3506C8.24966 11.1477 8.08831 10.9066 7.97837 10.6411C7.86842 10.3756 7.81206 10.091 7.8125 9.80371C7.8125 9.21973 8.04102 8.6709 8.45313 8.25684C8.86719 7.84277 9.41602 7.61621 10 7.61621C10.584 7.61621 11.1328 7.84277 11.5469 8.25684C11.7503 8.45972 11.9117 8.70084 12.0216 8.96631C12.1316 9.23178 12.188 9.51637 12.1875 9.80371C12.1875 10.3877 11.959 10.9365 11.5469 11.3506Z" fill="#BFBFBF"/>
</svg>
