<svg width="16" height="16" viewBox="0 0 16 16" fill="none" xmlns="http://www.w3.org/2000/svg">
<path fill-rule="evenodd" clip-rule="evenodd" d="M6.33331 1.3335C6.08278 1.3335 5.86325 1.50117 5.79733 1.74288L4.24232 7.44461H1.88887C1.58204 7.44461 1.33331 7.69334 1.33331 8.00016V14.1113C1.33331 14.4181 1.58204 14.6668 1.88887 14.6668H11.5706C12.101 14.6663 12.6137 14.476 13.0161 14.1304C13.4185 13.7848 13.684 13.3066 13.7646 12.7824L14.363 8.8935C14.4117 8.57684 14.3913 8.2534 14.3033 7.94535C14.2153 7.63729 14.0618 7.35191 13.8532 7.10875C13.6445 6.8656 13.3858 6.67043 13.0947 6.53661C12.8036 6.4028 12.487 6.33351 12.1666 6.3335H8.55554V3.55572C8.55554 2.96635 8.32141 2.40112 7.90466 1.98437C7.48791 1.56762 6.92268 1.3335 6.33331 1.3335ZM5.2222 8.07456L6.73694 2.52051C6.87884 2.57584 7.00921 2.66027 7.11899 2.77004C7.32736 2.97842 7.44442 3.26103 7.44442 3.55572V6.88905C7.44442 7.19588 7.69315 7.44461 7.99998 7.44461H12.1666C12.3268 7.44462 12.4851 7.47926 12.6306 7.54617C12.7762 7.61307 12.9056 7.71066 13.0099 7.83223C13.1142 7.95381 13.1909 8.0965 13.2349 8.25053C13.2789 8.40455 13.2891 8.56629 13.2648 8.72461L12.6664 12.6135C12.6261 12.8756 12.4934 13.1147 12.2922 13.2875C12.091 13.4603 11.8346 13.5554 11.5694 13.5557H5.2222V8.07456ZM4.11109 13.5557V8.55572H2.44442V13.5557H4.11109Z" fill="#00204D" fill-opacity="0.6" style="mix-blend-mode:multiply"/>
</svg>
