<svg width="28" height="28" viewBox="0 0 28 28" fill="none" xmlns="http://www.w3.org/2000/svg">
<path d="M27.3327 13.9985C27.3324 11.4505 26.602 8.95592 25.228 6.81012C23.854 4.66432 21.894 2.95714 19.5799 1.89071C17.2658 0.82427 14.6946 0.44323 12.1706 0.792697C9.64671 1.14216 7.27577 2.2075 5.33851 3.86259C3.40124 5.51768 1.97878 7.6932 1.23952 10.1316C0.500269 12.57 0.475179 15.1692 1.16722 17.6214C1.85927 20.0736 3.23947 22.2762 5.14442 23.9684C7.04938 25.6606 9.39931 26.7715 11.916 27.1696V17.8529H8.53046V13.9985H11.916V11.0607C11.916 7.7196 13.9071 5.87293 16.9516 5.87293C17.9517 5.88727 18.9495 5.97417 19.9371 6.13293V9.41515H18.2549C17.7485 9.34793 17.2361 9.48457 16.8305 9.79502C16.4248 10.1055 16.159 10.5643 16.0916 11.0707C16.0725 11.2125 16.0695 11.356 16.0827 11.4985V13.9985H19.7771L19.186 17.8529H16.0749V27.1696C19.2127 26.6751 22.0709 25.0766 24.1348 22.6619C26.1987 20.2472 27.3328 17.175 27.3327 13.9985Z" fill="#1877F2" style="mix-blend-mode:multiply"/>
</svg>
