<svg width="20" height="20" viewBox="0 0 20 20" fill="none" xmlns="http://www.w3.org/2000/svg">
<path fill-rule="evenodd" clip-rule="evenodd" d="M12.289 1.84596C12.075 1.65873 11.7713 1.61394 11.5124 1.73143C11.2535 1.84892 11.0872 2.10697 11.0872 2.39131V4.58273C9.40712 4.66713 7.83517 5.0743 6.64452 6.18124C5.27529 7.4542 4.56545 9.5049 4.56545 12.5362C4.56545 12.8473 4.76397 13.1236 5.05875 13.223C5.35353 13.3223 5.6788 13.2224 5.86702 12.9747C6.53246 12.0991 7.12292 11.4775 7.95589 11.0533C8.6797 10.6847 9.64267 10.4376 11.0872 10.3769V12.5362C11.0872 12.8206 11.2535 13.0786 11.5124 13.1961C11.7713 13.3136 12.075 13.2688 12.289 13.0816L18.0861 8.00911C18.2434 7.87151 18.3336 7.67273 18.3336 7.46377C18.3336 7.25481 18.2434 7.05602 18.0861 6.91842L12.289 1.84596ZM12.5365 5.28986V3.98824L16.5085 7.46377L12.5365 10.9393V9.63768C12.5365 9.23748 12.212 8.91304 11.8118 8.91304C9.82893 8.91304 8.41611 9.19258 7.2982 9.76188C6.8665 9.98173 6.48993 10.2393 6.1495 10.5262C6.39021 8.90901 6.93471 7.89029 7.63131 7.24267C8.58968 6.35169 9.99228 6.01449 11.8118 6.01449C12.212 6.01449 12.5365 5.69006 12.5365 5.28986Z" fill="#00204D" fill-opacity="0.6" style="mix-blend-mode:multiply"/>
<path d="M2.39132 4.56542C1.99112 4.56542 1.66669 4.88985 1.66669 5.29006V16.8843C1.66669 17.2845 1.99112 17.6089 2.39132 17.6089H16.1594C16.5596 17.6089 16.8841 17.2845 16.8841 16.8843V12.5364C16.8841 12.1362 16.5596 11.8118 16.1594 11.8118C15.7592 11.8118 15.4348 12.1362 15.4348 12.5364V16.1596H3.11596V6.01469H4.56524C4.96544 6.01469 5.28988 5.69026 5.28988 5.29006C5.28988 4.88985 4.96544 4.56542 4.56524 4.56542H2.39132Z" fill="#00204D" fill-opacity="0.6" style="mix-blend-mode:multiply"/>
</svg>
