<svg width="20" height="20" viewBox="0 0 20 20" fill="none" xmlns="http://www.w3.org/2000/svg">
<path fill-rule="evenodd" clip-rule="evenodd" d="M0.833313 9.46608H19.1666L19.1663 10.2053C19.1656 11.9052 18.6595 13.5691 17.7084 14.9985C16.7573 16.4278 15.4013 17.5624 13.8021 18.267L13.6512 18.3334H6.51447C4.91526 17.6289 3.24266 16.4278 2.29154 14.9985C1.34042 13.5691 0.834333 11.9052 0.833622 10.2053L0.833313 9.46608ZM6.68436 16.8555H13.3156C14.5844 16.2648 15.6606 15.3456 16.4238 14.1985C17.0778 13.2158 17.4792 12.0999 17.6 10.944H2.4C2.52072 12.0999 2.92218 13.2158 3.57614 14.1985C4.3394 15.3456 5.41559 16.2648 6.68436 16.8555Z" fill="#1890FF"/>
<path fill-rule="evenodd" clip-rule="evenodd" d="M19.038 2.48653L15.9826 6.9202L14.7114 6.10041L17.7669 1.66675L19.038 2.48653Z" fill="#1890FF"/>
<path fill-rule="evenodd" clip-rule="evenodd" d="M14.5387 3.06403L13.1752 6.75875L11.7364 6.26186L13.0999 2.56714L14.5387 3.06403Z" fill="#1890FF"/>
<path fill-rule="evenodd" clip-rule="evenodd" d="M7.36026 4.31305C7.93143 4.24925 8.5096 4.34328 9.0278 4.58425C9.34301 4.73083 9.62818 4.92812 9.87193 5.16628C10.0797 5.10335 10.2945 5.06211 10.5127 5.04366C10.9551 5.00626 11.4006 5.06349 11.8176 5.21131C12.2345 5.35913 12.6128 5.59391 12.9254 5.89899C13 5.97179 13.0705 6.04817 13.1365 6.12777C13.3006 6.04169 13.4732 5.97006 13.6523 5.91412C14.1531 5.75762 14.6874 5.72927 15.203 5.83184C15.7185 5.93441 16.1979 6.1644 16.5943 6.49942C16.9907 6.83443 17.2906 7.26304 17.4649 7.74351L17.7178 8.44077L16.2763 8.93013L16.0234 8.23288C15.9364 7.99324 15.7868 7.77947 15.5891 7.61239C15.3914 7.4453 15.1524 7.33059 14.8952 7.27943C14.6381 7.22828 14.3716 7.24241 14.1218 7.32047C13.872 7.39853 13.6473 7.53784 13.4697 7.72484L12.6131 8.62664L12.1878 7.47313C12.1139 7.27276 11.9953 7.09057 11.8405 6.9395C11.6857 6.78842 11.4984 6.67216 11.2919 6.59896C11.0854 6.52576 10.8648 6.49741 10.6457 6.51594C10.4266 6.53446 10.2145 6.59939 10.0242 6.70614L9.38559 7.06449L8.99364 6.45924C8.84163 6.22451 8.62399 6.03624 8.36592 5.91624C8.10786 5.79624 7.81994 5.74941 7.5355 5.78118C7.25106 5.81296 6.98175 5.92203 6.75875 6.09577C6.53575 6.26951 6.36819 6.5008 6.27548 6.76287L6.08596 7.29858L5.50196 7.26091C5.46956 7.25883 5.44175 7.25571 5.42231 7.25332L5.39722 7.25007L5.39243 7.24943C5.08495 7.25409 4.78586 7.34843 4.53445 7.52037C4.27644 7.69682 4.08133 7.94632 3.97601 8.23451L3.72139 8.93119L2.28103 8.43856L2.53565 7.74188C2.7463 7.16551 3.13651 6.6665 3.65253 6.31359C4.07035 6.02785 4.55401 5.84927 5.05842 5.79171C5.24719 5.46783 5.49853 5.18002 5.80049 4.94476C6.24828 4.59588 6.78909 4.37685 7.36026 4.31305Z" fill="#1890FF"/>
<path d="M3.88907 4.29347C4.31094 4.29347 4.65294 3.96264 4.65294 3.55453C4.65294 3.14642 4.31094 2.81558 3.88907 2.81558C3.4672 2.81558 3.12521 3.14642 3.12521 3.55453C3.12521 3.96264 3.4672 4.29347 3.88907 4.29347Z" fill="#1890FF"/>
<path d="M9.99998 3.55453C10.4218 3.55453 10.7638 3.22369 10.7638 2.81558C10.7638 2.40748 10.4218 2.07664 9.99998 2.07664C9.57811 2.07664 9.23612 2.40748 9.23612 2.81558C9.23612 3.22369 9.57811 3.55453 9.99998 3.55453Z" fill="#1890FF"/>
</svg>
