<svg width="24" height="24" viewBox="0 0 24 24" fill="none" xmlns="http://www.w3.org/2000/svg">
<path d="M11.1667 20.3331V12.6665H7C7.25 16.1665 9.08333 18.9165 11.1667 20.3331Z" fill="#00204D" fill-opacity="0.6" style="mix-blend-mode:multiply"/>
<path d="M17 12.6665H12.8333V20.3331C14.9167 18.9165 16.75 16.1665 17 12.6665Z" fill="#00204D" fill-opacity="0.6" style="mix-blend-mode:multiply"/>
<path d="M11.1667 10.9998V3.33314C8.83333 4.9998 7.25 7.91647 7 10.9998H11.1667Z" fill="#00204D" fill-opacity="0.6" style="mix-blend-mode:multiply"/>
<path d="M18.6667 10.9998H22C21.6667 6.4998 18.25 2.83314 13.9167 1.9998C16.5833 3.9998 18.4167 7.41647 18.6667 10.9998Z" fill="#00204D" fill-opacity="0.6" style="mix-blend-mode:multiply"/>
<path d="M12.8333 3.33314V10.9998H17C16.75 7.91647 15.1667 4.91647 12.8333 3.33314Z" fill="#00204D" fill-opacity="0.6" style="mix-blend-mode:multiply"/>
<path d="M18.6667 12.6665C18.4167 16.3331 16.6667 19.6665 13.9167 21.6665C18.25 20.8331 21.5833 17.1665 22 12.6665H18.6667Z" fill="#00204D" fill-opacity="0.6" style="mix-blend-mode:multiply"/>
<path d="M5.33333 12.6665H2C2.33333 17.1665 5.66667 20.8331 10.0833 21.6665C7.41667 19.6665 5.58333 16.3331 5.33333 12.6665Z" fill="#00204D" fill-opacity="0.6" style="mix-blend-mode:multiply"/>
<path d="M5.33333 10.9998C5.58333 7.41647 7.41667 3.9998 10.0833 1.9998C5.75 2.83314 2.41667 6.4998 2.08333 10.9998H5.33333Z" fill="#00204D" fill-opacity="0.6" style="mix-blend-mode:multiply"/>
</svg>
