<svg width="25" height="24" viewBox="0 0 25 24" fill="none" xmlns="http://www.w3.org/2000/svg">
<path d="M2.75 15.0308V19.1975C2.75 19.4186 2.8378 19.6305 2.99408 19.7868C3.15037 19.9431 3.36234 20.0309 3.58336 20.0309H6.91678C7.1378 20.0309 7.34977 19.9431 7.50605 19.7868C7.66234 19.6305 7.75014 19.4186 7.75014 19.1975V15.0308H2.75Z" fill="#366AE2"/>
<path d="M7.75014 13.364V4.19714C7.75014 3.97612 7.66234 3.76415 7.50605 3.60786C7.34977 3.45158 7.1378 3.36378 6.91678 3.36378H3.58336C3.36234 3.36378 3.15037 3.45158 2.99408 3.60786C2.8378 3.76415 2.75 3.97612 2.75 4.19714V13.364H7.75014Z" fill="#366AE2"/>
<path d="M9.41685 15.0308V19.1975C9.41685 19.4186 9.50465 19.6305 9.66093 19.7868C9.81722 19.9431 10.0292 20.0309 10.2502 20.0309H13.5836C13.8046 20.0309 14.0166 19.9431 14.1729 19.7868C14.3292 19.6305 14.417 19.4186 14.417 19.1975V15.0308H9.41685Z" fill="#366AE2"/>
<path d="M14.417 13.364V4.19714C14.417 3.97612 14.3292 3.76415 14.1729 3.60786C14.0166 3.45158 13.8046 3.36378 13.5836 3.36378H10.2502C10.0292 3.36378 9.81722 3.45158 9.66093 3.60786C9.50465 3.76415 9.41685 3.97612 9.41685 4.19714V13.364H14.417Z" fill="#366AE2"/>
<path d="M16.4924 13.7245L21.3509 12.5445L19.1883 3.63674C19.1362 3.42206 19.001 3.23686 18.8124 3.12185C18.6238 3.00684 18.3972 2.97142 18.1825 3.02339L14.9424 3.81008C14.7286 3.8633 14.5446 3.99898 14.4307 4.18747C14.3167 4.37596 14.2819 4.60191 14.334 4.81594L16.4924 13.7245Z" fill="#366AE2"/>
<path d="M22.7263 18.2141L21.7438 14.1649L16.8845 15.3441L17.8679 19.3933C17.8937 19.4997 17.9402 19.6 18.0047 19.6884C18.0693 19.7768 18.1506 19.8516 18.2441 19.9086C18.3376 19.9655 18.4414 20.0035 18.5496 20.0203C18.6578 20.0372 18.7682 20.0325 18.8746 20.0067L22.1138 19.2208C22.3285 19.1685 22.5137 19.0331 22.6285 18.8443C22.7434 18.6555 22.7786 18.4288 22.7263 18.2141Z" fill="#366AE2"/>
</svg>
