<svg width="25" height="24" viewBox="0 0 25 24" fill="none" xmlns="http://www.w3.org/2000/svg">
<path d="M18.9165 2H7.24997C6.58694 2 5.95106 2.26339 5.48223 2.73223C5.01339 3.20106 4.75 3.83694 4.75 4.49997V21.5831C4.74996 21.6577 4.76993 21.7309 4.80783 21.7951C4.84572 21.8593 4.90015 21.9122 4.96545 21.9482C5.03074 21.9842 5.10449 22.002 5.17902 21.9998C5.25355 21.9976 5.32612 21.9754 5.38916 21.9356L13.0832 17.0765L20.7773 21.9356C20.8438 21.9779 20.921 22.0002 20.9998 21.9998C21.1103 21.9998 21.2163 21.9559 21.2945 21.8777C21.3726 21.7996 21.4165 21.6936 21.4165 21.5831V4.49997C21.4165 3.83694 21.1531 3.20106 20.6843 2.73223C20.2154 2.26339 19.5795 2 18.9165 2V2Z" fill="#366AE2"/>
</svg>
