<svg width="24" height="24" viewBox="0 0 24 24" fill="none" xmlns="http://www.w3.org/2000/svg">
<path d="M20.25 11H3.75C3.3 11 3 11.3 3 11.75V13.25C3 13.7 3.3 14 3.75 14H20.25C20.7 14 21 13.7 21 13.25V11.75C21 11.3 20.7 11 20.25 11Z" fill="#00204D" fill-opacity="0.6" style="mix-blend-mode:multiply"/>
<path d="M20.25 5H3.75C3.3 5 3 5.3 3 5.75V7.25C3 7.7 3.3 8 3.75 8H20.25C20.7 8 21 7.7 21 7.25V5.75C21 5.3 20.7 5 20.25 5Z" fill="#00204D" fill-opacity="0.6" style="mix-blend-mode:multiply"/>
<path d="M20.25 17H3.75C3.3 17 3 17.3 3 17.75V19.25C3 19.7 3.3 20 3.75 20H20.25C20.7 20 21 19.7 21 19.25V17.75C21 17.3 20.7 17 20.25 17Z" fill="#00204D" fill-opacity="0.6" style="mix-blend-mode:multiply"/>
</svg>
