<svg width="24" height="24" viewBox="0 0 24 24" fill="none" xmlns="http://www.w3.org/2000/svg">
<path fill-rule="evenodd" clip-rule="evenodd" d="M4 7.63601C4 7.08373 4.44772 6.63601 5 6.63601H15.9091C16.4614 6.63601 16.9091 7.08373 16.9091 7.63601V20.3633C16.9091 20.9156 16.4614 21.3633 15.9091 21.3633H5C4.44772 21.3633 4 20.9156 4 20.3633V7.63601ZM6 8.63601V19.3633H14.9091V8.63601H6Z" fill="white"/>
<path fill-rule="evenodd" clip-rule="evenodd" d="M7.63636 3.99965C7.63636 3.44736 8.08408 2.99965 8.63636 2.99965H19.5455C20.0977 2.99965 20.5455 3.44736 20.5455 3.99965V16.7269C20.5455 17.2792 20.0977 17.7269 19.5455 17.7269C18.9932 17.7269 18.5455 17.2792 18.5455 16.7269V4.99965H8.63636C8.08408 4.99965 7.63636 4.55193 7.63636 3.99965Z" fill="white"/>
</svg>
