<svg width="25" height="24" viewBox="0 0 25 24" fill="none" xmlns="http://www.w3.org/2000/svg">
<path fill-rule="evenodd" clip-rule="evenodd" d="M4.99759 6.16667C5.36763 7.60436 6.67271 8.66667 8.22591 8.66667C10.0669 8.66667 11.5592 7.17428 11.5592 5.33333C11.5592 3.49238 10.0669 2 8.22591 2C6.67271 2 5.36763 3.06231 4.99759 4.5H2.39258V6.16667H4.99759ZM6.55924 5.33333C6.55924 4.41286 7.30544 3.66667 8.22591 3.66667C9.14639 3.66667 9.89258 4.41286 9.89258 5.33333C9.89258 6.25381 9.14639 7 8.22591 7C7.30544 7 6.55924 6.25381 6.55924 5.33333Z" fill="#00204D" fill-opacity="0.6" style="mix-blend-mode:multiply"/>
<path fill-rule="evenodd" clip-rule="evenodd" d="M14.8926 15.3333C13.3394 15.3333 12.0343 14.271 11.6643 12.8333H2.39258V11.1667H11.6643C12.0343 9.72898 13.3394 8.66667 14.8926 8.66667C16.7335 8.66667 18.2259 10.159 18.2259 12C18.2259 13.8409 16.7335 15.3333 14.8926 15.3333ZM14.8926 13.6667C13.9721 13.6667 13.2259 12.9205 13.2259 12C13.2259 11.0795 13.9721 10.3333 14.8926 10.3333C15.8131 10.3333 16.5592 11.0795 16.5592 12C16.5592 12.9205 15.8131 13.6667 14.8926 13.6667Z" fill="#00204D" fill-opacity="0.6" style="mix-blend-mode:multiply"/>
<path fill-rule="evenodd" clip-rule="evenodd" d="M4.99759 19.5C5.36763 20.9377 6.67271 22 8.22591 22C10.0669 22 11.5592 20.5076 11.5592 18.6667C11.5592 16.8257 10.0669 15.3333 8.22591 15.3333C6.67271 15.3333 5.36763 16.3956 4.99759 17.8333H2.39258V19.5H4.99759ZM6.55924 18.6667C6.55924 17.7462 7.30544 17 8.22591 17C9.14639 17 9.89258 17.7462 9.89258 18.6667C9.89258 19.5871 9.14639 20.3333 8.22591 20.3333C7.30544 20.3333 6.55924 19.5871 6.55924 18.6667Z" fill="#00204D" fill-opacity="0.6" style="mix-blend-mode:multiply"/>
<path d="M13.2259 4.5H22.3926V6.16667H13.2259V4.5Z" fill="#00204D" fill-opacity="0.6" style="mix-blend-mode:multiply"/>
<path d="M22.3926 11.1667H19.8926V12.8333H22.3926V11.1667Z" fill="#00204D" fill-opacity="0.6" style="mix-blend-mode:multiply"/>
<path d="M22.3926 17.8333H13.2259V19.5H22.3926V17.8333Z" fill="#00204D" fill-opacity="0.6" style="mix-blend-mode:multiply"/>
</svg>
