<svg width="25" height="24" viewBox="0 0 25 24" fill="none" xmlns="http://www.w3.org/2000/svg">
<path d="M20.0997 5.70711C20.4902 5.31658 20.4902 4.68342 20.0997 4.29289C19.7092 3.90237 19.076 3.90237 18.6855 4.29289L12.3926 10.5858L6.09968 4.29289C5.70916 3.90237 5.076 3.90237 4.68547 4.29289C4.29495 4.68342 4.29495 5.31658 4.68547 5.70711L10.9784 12L4.68547 18.2929C4.29495 18.6834 4.29495 19.3166 4.68547 19.7071C5.076 20.0976 5.70916 20.0976 6.09968 19.7071L12.3926 13.4142L18.6855 19.7071C19.076 20.0976 19.7092 20.0976 20.0997 19.7071C20.4902 19.3166 20.4902 18.6834 20.0997 18.2929L13.8068 12L20.0997 5.70711Z" fill="#00204D" fill-opacity="0.6" style="mix-blend-mode:multiply"/>
</svg>
