<svg width="25" height="24" viewBox="0 0 25 24" fill="none" xmlns="http://www.w3.org/2000/svg">
<path d="M18.5591 2H6.89255C6.22952 2 5.59364 2.26339 5.1248 2.73223C4.65597 3.20106 4.39258 3.83694 4.39258 4.49997V21.5831C4.39254 21.6577 4.41251 21.7309 4.45041 21.7951C4.4883 21.8593 4.54273 21.9122 4.60802 21.9482C4.67331 21.9842 4.74707 22.002 4.8216 21.9998C4.89613 21.9976 4.9687 21.9754 5.03174 21.9356L12.7258 17.0765L20.4199 21.9356C20.4864 21.9779 20.5636 22.0002 20.6424 21.9998C20.7529 21.9998 20.8589 21.9559 20.937 21.8777C21.0152 21.7996 21.0591 21.6936 21.0591 21.5831V4.49997C21.0591 3.83694 20.7957 3.20106 20.3268 2.73223C19.858 2.26339 19.2221 2 18.5591 2V2Z" fill="white"/>
</svg>
