<svg width="10" height="10" viewBox="0 0 10 10" fill="none" xmlns="http://www.w3.org/2000/svg">
<path d="M5.47958 5.00065L7.89779 2.20119C7.93832 2.15466 7.90424 2.08398 7.84159 2.08398H7.10646C7.06316 2.08398 7.0217 2.10277 6.99315 2.13498L4.9987 4.44416L3.00425 2.13498C2.97661 2.10277 2.93516 2.08398 2.89094 2.08398H2.1558C2.09316 2.08398 2.05907 2.15466 2.09961 2.20119L4.51782 5.00065L2.09961 7.80011C2.09053 7.81048 2.0847 7.82317 2.08282 7.83666C2.08095 7.85015 2.08309 7.86388 2.08901 7.87622C2.09492 7.88856 2.10436 7.89899 2.1162 7.90627C2.12804 7.91356 2.14179 7.91739 2.1558 7.91732H2.89094C2.93424 7.91732 2.97569 7.89853 3.00425 7.86632L4.9987 5.55714L6.99315 7.86632C7.02078 7.89853 7.06224 7.91732 7.10646 7.91732H7.84159C7.90424 7.91732 7.93832 7.84664 7.89779 7.80011L5.47958 5.00065Z" fill="white"/>
</svg>
