<svg width="24" height="24" viewBox="0 0 24 24" fill="none" xmlns="http://www.w3.org/2000/svg">
<path fill-rule="evenodd" clip-rule="evenodd" d="M16.7559 7.2441C16.9969 7.48505 17.0669 7.84842 16.9326 8.16162L14.4326 13.995C14.3484 14.1916 14.1916 14.3484 13.995 14.4326L8.16162 16.9326C7.84842 17.0669 7.48505 16.9969 7.2441 16.7559C7.00315 16.515 6.93317 16.1516 7.0674 15.8384L9.5674 10.0051C9.6517 9.80841 9.80841 9.6517 10.0051 9.5674L15.8384 7.0674C16.1516 6.93317 16.515 7.00315 16.7559 7.2441ZM10.968 10.968L9.41998 14.5801L13.032 13.032L10.968 10.968Z" fill="white"/>
<path fill-rule="evenodd" clip-rule="evenodd" d="M2 12C2 6.47715 6.47715 2 12 2C17.5228 2 22 6.47715 22 12C22 17.5228 17.5228 22 12 22C6.47715 22 2 17.5228 2 12ZM12 3.66667C7.39763 3.66667 3.66667 7.39763 3.66667 12C3.66667 16.6024 7.39763 20.3333 12 20.3333C16.6024 20.3333 20.3333 16.6024 20.3333 12C20.3333 7.39763 16.6024 3.66667 12 3.66667Z" fill="white"/>
</svg>
