<svg width="20" height="20" viewBox="0 0 20 20" fill="none" xmlns="http://www.w3.org/2000/svg">
<path fill-rule="evenodd" clip-rule="evenodd" d="M13.334 3.05686C12.2355 3.05686 11.334 3.99594 11.334 5.14019V5.83464H10.0007V5.14019C10.0007 3.22888 11.4991 1.66797 13.334 1.66797C15.1688 1.66797 16.6673 3.22888 16.6673 5.14019C16.6673 7.0515 15.1688 8.61241 13.334 8.61241H12.6673V7.22352H13.334C14.4325 7.22352 15.334 6.28444 15.334 5.14019C15.334 3.99594 14.4325 3.05686 13.334 3.05686Z" fill="#BFBFBF"/>
<path fill-rule="evenodd" clip-rule="evenodd" d="M3.33398 4.44575H14.0007V9.30686C14.0007 12.3987 11.6355 14.8624 8.66732 14.8624C5.69913 14.8624 3.33398 12.3987 3.33398 9.30686V4.44575ZM4.66732 5.83464V9.30686C4.66732 11.6317 6.43551 13.4735 8.66732 13.4735C10.8991 13.4735 12.6673 11.6317 12.6673 9.30686V5.83464H4.66732Z" fill="#BFBFBF"/>
<path fill-rule="evenodd" clip-rule="evenodd" d="M9.33398 13.4735V18.3346H8.00065V13.4735H9.33398Z" fill="#BFBFBF"/>
<path fill-rule="evenodd" clip-rule="evenodd" d="M5.33398 16.9457H12.0007V18.3346H5.33398V16.9457Z" fill="#BFBFBF"/>
<path fill-rule="evenodd" clip-rule="evenodd" d="M3.33398 1.66797H6.50985L8.81924 10.4886L7.53289 10.854L5.49145 3.05686H3.33398V1.66797Z" fill="#BFBFBF"/>
</svg>
