<svg width="24" height="24" viewBox="0 0 24 24" fill="none" xmlns="http://www.w3.org/2000/svg">
<path d="M3.75 22.25V7.30773C3.75 6.80259 3.925 6.37503 4.275 6.02503C4.625 5.67503 5.05256 5.50003 5.55768 5.50003H14.9422C15.4474 5.50003 15.8749 5.67503 16.2249 6.02503C16.5749 6.37503 16.7499 6.80259 16.7499 7.30773V22.25L10.25 19.4615L3.75 22.25ZM5.24998 19.95L10.25 17.8L15.25 19.95V7.30773C15.25 7.23079 15.2179 7.16027 15.1538 7.09615C15.0897 7.03205 15.0192 7 14.9422 7H5.55768C5.48076 7 5.41024 7.03205 5.34612 7.09615C5.28202 7.16027 5.24998 7.23079 5.24998 7.30773V19.95ZM18.7499 19.25V3.80775C18.7499 3.73082 18.7179 3.6603 18.6538 3.5962C18.5897 3.53209 18.5191 3.50003 18.4422 3.50003H6.75V2.00008H18.4422C18.9473 2.00008 19.3749 2.17508 19.7249 2.52508C20.0749 2.87508 20.2499 3.30263 20.2499 3.80775V19.25H18.7499Z" fill="#00204D" fill-opacity="0.6" style="mix-blend-mode:multiply"/>
</svg>
