<svg width="16" height="16" viewBox="0 0 16 16" fill="none" xmlns="http://www.w3.org/2000/svg">
<path d="M14.5399 2.02082C14.5849 1.68913 14.3525 1.38379 14.0208 1.33882C13.6891 1.29385 13.3837 1.52627 13.3388 1.85795L13.0688 3.84933C11.8541 2.40743 10.0253 1.51489 7.99992 1.51489C4.33187 1.51489 1.33325 4.51351 1.33325 8.18156C1.33325 11.8496 4.33187 14.8482 7.99992 14.8482C11.668 14.8482 14.6666 11.8496 14.6666 8.18156C14.6666 7.84684 14.3952 7.5755 14.0605 7.5755C13.7258 7.5755 13.4545 7.84684 13.4545 8.18156C13.4545 11.1802 10.9985 13.6361 7.99992 13.6361C5.0013 13.6361 2.54537 11.1802 2.54537 8.18156C2.54537 5.18294 5.0013 2.72701 7.99992 2.72701C9.71496 2.72701 11.2468 3.50434 12.2322 4.74074L9.89823 4.42955C9.56644 4.38531 9.26162 4.61841 9.21738 4.95019C9.17314 5.28198 9.40625 5.5868 9.73803 5.63104L13.3744 6.11589C13.7057 6.16005 14.0102 5.92774 14.0551 5.59657L14.5399 2.02082Z" fill="#00204D" fill-opacity="0.6" style="mix-blend-mode:multiply"/>
</svg>
