<svg width="20" height="20" viewBox="0 0 20 20" fill="none" xmlns="http://www.w3.org/2000/svg">
<path fill-rule="evenodd" clip-rule="evenodd" d="M9.99998 3.05564C8.5015 3.05564 7.33331 4.2725 7.33331 5.83341V8.61119C7.33331 10.1721 8.5015 11.389 9.99998 11.389C11.4985 11.389 12.6666 10.1721 12.6666 8.61119V5.83341C12.6666 4.2725 11.4985 3.05564 9.99998 3.05564ZM5.99998 5.83341C5.99998 3.50544 7.76512 1.66675 9.99998 1.66675C12.2348 1.66675 14 3.50544 14 5.83341V8.61119C14 10.9392 12.2348 12.7779 9.99998 12.7779C7.76512 12.7779 5.99998 10.9392 5.99998 8.61119V5.83341Z" fill="#1890FF"/>
<path fill-rule="evenodd" clip-rule="evenodd" d="M4.66665 7.91675V8.61119C4.66665 11.6999 7.03484 14.1667 9.99998 14.1667C12.9651 14.1667 15.3333 11.6999 15.3333 8.61119V7.91675H16.6666V8.61119C16.6666 12.4669 13.7015 15.5556 9.99998 15.5556C6.29846 15.5556 3.33331 12.4669 3.33331 8.61119V7.91675H4.66665Z" fill="#1890FF"/>
<path fill-rule="evenodd" clip-rule="evenodd" d="M5.99998 16.9445H14V18.3334H5.99998V16.9445Z" fill="#1890FF"/>
<path fill-rule="evenodd" clip-rule="evenodd" d="M10.6666 14.1667V18.3334H9.33331V14.1667H10.6666Z" fill="#1890FF"/>
</svg>
