<svg width="19" height="20" viewBox="0 0 19 20" fill="none" xmlns="http://www.w3.org/2000/svg">
<path fill-rule="evenodd" clip-rule="evenodd" d="M5.63653 0.833008H13.3638V3.86331H18.6668V5.52998H0.333496V3.86331H5.63653V0.833008ZM7.30319 3.86331H11.6971V2.49967H7.30319V3.86331ZM4.21142 6.83638L4.92759 16.8661C4.93984 17.0381 5.01682 17.1993 5.14302 17.3168C5.26922 17.4343 5.43527 17.4997 5.60774 17.4997H13.3926C13.5651 17.4997 13.7311 17.4343 13.8573 17.3168C13.9835 17.1993 14.0605 17.0383 14.0727 16.8663L14.7889 6.83638L16.4513 6.95508L15.7352 16.9846C15.7352 16.9847 15.7352 16.9845 15.7352 16.9846C15.693 17.577 15.4278 18.1317 14.9932 18.5364C14.5585 18.9413 13.9866 19.1664 13.3926 19.1663H5.60776C5.01376 19.1664 4.44181 18.9413 4.00713 18.5364C3.57249 18.1317 3.30737 17.5772 3.26516 16.9848C3.26515 16.9847 3.26516 16.9848 3.26516 16.9848L2.54899 6.95508L4.21142 6.83638Z" fill="#00204D" fill-opacity="0.6" style="mix-blend-mode:multiply"/>
</svg>
