<svg width="20" height="20" viewBox="0 0 20 20" fill="none" xmlns="http://www.w3.org/2000/svg">
<path fill-rule="evenodd" clip-rule="evenodd" d="M13.3333 3.05564C12.2348 3.05564 11.3333 3.99472 11.3333 5.13897V5.83341H9.99998V5.13897C9.99998 3.22766 11.4985 1.66675 13.3333 1.66675C15.1682 1.66675 16.6666 3.22766 16.6666 5.13897C16.6666 7.05028 15.1682 8.61119 13.3333 8.61119H12.6666V7.2223H13.3333C14.4318 7.2223 15.3333 6.28322 15.3333 5.13897C15.3333 3.99472 14.4318 3.05564 13.3333 3.05564Z" fill="#1890FF"/>
<path fill-rule="evenodd" clip-rule="evenodd" d="M3.33331 4.44453H14V9.30564C14 12.3975 11.6348 14.8612 8.66665 14.8612C5.69846 14.8612 3.33331 12.3975 3.33331 9.30564V4.44453ZM4.66665 5.83341V9.30564C4.66665 11.6304 6.43484 13.4723 8.66665 13.4723C10.8985 13.4723 12.6666 11.6304 12.6666 9.30564V5.83341H4.66665Z" fill="#1890FF"/>
<path fill-rule="evenodd" clip-rule="evenodd" d="M9.33331 13.4723V18.3334H7.99998V13.4723H9.33331Z" fill="#1890FF"/>
<path fill-rule="evenodd" clip-rule="evenodd" d="M5.33331 16.9445H12V18.3334H5.33331V16.9445Z" fill="#1890FF"/>
<path fill-rule="evenodd" clip-rule="evenodd" d="M3.33331 1.66675H6.50918L8.81857 10.4873L7.53222 10.8528L5.49078 3.05564H3.33331V1.66675Z" fill="#1890FF"/>
</svg>
