<svg width="16" height="16" viewBox="0 0 16 16" fill="none" xmlns="http://www.w3.org/2000/svg">
<path d="M6.66659 3.00004C6.66659 3.91671 5.91659 4.66671 4.99992 4.66671C4.08325 4.66671 3.33325 3.91671 3.33325 3.00004C3.33325 2.08337 4.08325 1.33337 4.99992 1.33337C5.91659 1.33337 6.66659 2.08337 6.66659 3.00004Z" fill="#00204D" fill-opacity="0.4" style="mix-blend-mode:multiply"/>
<path d="M3.33325 8.00004C3.33325 7.08337 4.08325 6.33337 4.99992 6.33337C5.91659 6.33337 6.66659 7.08337 6.66659 8.00004C6.66659 8.91671 5.91659 9.66671 4.99992 9.66671C4.08325 9.66671 3.33325 8.91671 3.33325 8.00004Z" fill="#00204D" fill-opacity="0.4" style="mix-blend-mode:multiply"/>
<path d="M3.33325 13C3.33325 12.0834 4.08325 11.3334 4.99992 11.3334C5.91659 11.3334 6.66659 12.0834 6.66659 13C6.66659 13.9167 5.91659 14.6667 4.99992 14.6667C4.08325 14.6667 3.33325 13.9167 3.33325 13Z" fill="#00204D" fill-opacity="0.4" style="mix-blend-mode:multiply"/>
<path d="M12.6666 3.00004C12.6666 3.91671 11.9166 4.66671 10.9999 4.66671C10.0833 4.66671 9.33325 3.91671 9.33325 3.00004C9.33325 2.08337 10.0833 1.33337 10.9999 1.33337C11.9166 1.33337 12.6666 2.08337 12.6666 3.00004Z" fill="#00204D" fill-opacity="0.4" style="mix-blend-mode:multiply"/>
<path d="M9.33325 8.00004C9.33325 7.08337 10.0833 6.33337 10.9999 6.33337C11.9166 6.33337 12.6666 7.08337 12.6666 8.00004C12.6666 8.91671 11.9166 9.66671 10.9999 9.66671C10.0833 9.66671 9.33325 8.91671 9.33325 8.00004Z" fill="#00204D" fill-opacity="0.4" style="mix-blend-mode:multiply"/>
<path d="M9.33325 13C9.33325 12.0834 10.0833 11.3334 10.9999 11.3334C11.9166 11.3334 12.6666 12.0834 12.6666 13C12.6666 13.9167 11.9166 14.6667 10.9999 14.6667C10.0833 14.6667 9.33325 13.9167 9.33325 13Z" fill="#00204D" fill-opacity="0.4" style="mix-blend-mode:multiply"/>
</svg>
