<svg width="24" height="24" viewBox="0 0 24 24" fill="none" xmlns="http://www.w3.org/2000/svg">
<path d="M9.91555 6.55192C10.2706 6.19689 10.2706 5.62129 9.91555 5.26627C9.56053 4.91124 8.98492 4.91124 8.6299 5.26627L2.26696 11.6292L2.26036 11.6359C2.09932 11.7999 2 12.0247 2 12.2727C2 12.396 2.02453 12.5135 2.06898 12.6207C2.11334 12.7279 2.17911 12.8284 2.26627 12.9156L8.6299 19.2792C8.98492 19.6342 9.56053 19.6342 9.91555 19.2792C10.2706 18.9242 10.2706 18.3486 9.91555 17.9935L5.10383 13.1818H21.0909C21.593 13.1818 22 12.7748 22 12.2727C22 11.7706 21.593 11.3636 21.0909 11.3636H5.10383L9.91555 6.55192Z" fill="#161C24" fill-opacity="0.6"/>
</svg>
