<svg xmlns="http://www.w3.org/2000/svg" width="16" height="16" viewBox="0 0 16 16" fill="none">
<path d="M7.47674 2H8.52326C8.61628 2 8.66279 2.04444 8.66279 2.13333V13.8667C8.66279 13.9556 8.61628 14 8.52326 14H7.47674C7.38372 14 7.33721 13.9556 7.33721 13.8667V2.13333C7.33721 2.04444 7.38372 2 7.47674 2Z" fill="#262626"/>
<path d="M2.13953 7.36667H13.8605C13.9535 7.36667 14 7.41111 14 7.5V8.5C14 8.58889 13.9535 8.63333 13.8605 8.63333H2.13953C2.04651 8.63333 2 8.58889 2 8.5V7.5C2 7.41111 2.04651 7.36667 2.13953 7.36667Z" fill="#262626"/>
</svg>