<svg width="25" height="24" viewBox="0 0 25 24" fill="none" xmlns="http://www.w3.org/2000/svg">
<path fill-rule="evenodd" clip-rule="evenodd" d="M5.87346 19.7036C5.88199 19.7109 5.89067 19.7181 5.8995 19.7251C7.62657 21.1465 9.83861 22 12.25 22C14.6595 22 16.8699 21.1479 18.5964 19.7285L18.6007 19.7251C18.6108 19.717 18.6207 19.7088 18.6305 19.7003C20.8417 17.8661 22.25 15.0975 22.25 12C22.25 6.47715 17.7728 2 12.25 2C6.72715 2 2.25 6.47715 2.25 12C2.25 15.0993 3.65997 17.8693 5.87346 19.7036ZM3.91667 12C3.91667 7.39763 7.64763 3.66667 12.25 3.66667C16.8524 3.66667 20.5833 7.39763 20.5833 12C20.5833 14.0013 19.8779 15.8378 18.7021 17.2744C18.4324 16.5599 17.9206 15.9473 17.2366 15.5565L15.5245 14.5768C16.0833 13.8677 16.4167 12.9728 16.4167 12V10.3333C16.4167 8.03226 14.5511 6.16667 12.25 6.16667C9.94893 6.16667 8.08333 8.03226 8.08333 10.3333V12C8.08333 12.972 8.4162 13.8663 8.97416 14.5751L7.26268 15.5567C6.57875 15.9475 6.0673 16.5599 5.79778 17.2742C4.62206 15.8376 3.91667 14.0012 3.91667 12ZM17.25 18.6673C15.8572 19.7134 14.126 20.3333 12.25 20.3333C10.374 20.3333 8.64277 19.7134 7.25 18.6673V18.4508C7.25 17.8523 7.57055 17.3002 8.08995 17.0036L10.3482 15.7083C10.9184 16.0013 11.5649 16.1667 12.25 16.1667C12.9339 16.1667 13.5794 16.0019 14.1488 15.7098L16.41 17.0037C16.9294 17.3004 17.25 17.8525 17.25 18.4509V18.6673ZM12.25 7.83333C10.8694 7.83333 9.75 8.95274 9.75 10.3333V12C9.75 12.8511 10.1755 13.603 10.8253 14.0545L10.8352 14.0614C11.2375 14.338 11.7249 14.5 12.25 14.5C12.768 14.5 13.2492 14.3424 13.6483 14.0726C13.6608 14.0635 13.6735 14.0547 13.6864 14.0464C14.3296 13.594 14.75 12.846 14.75 12V10.3333C14.75 8.95274 13.6306 7.83333 12.25 7.83333Z" fill="#00204D" fill-opacity="0.6" style="mix-blend-mode:multiply"/>
</svg>
