<svg width="17" height="18" viewBox="0 0 17 18" fill="none" xmlns="http://www.w3.org/2000/svg">
<path fill-rule="evenodd" clip-rule="evenodd" d="M0.666016 16.6087C0.666016 16.2085 0.990447 15.8841 1.39065 15.8841H15.8834C16.2836 15.8841 16.608 16.2085 16.608 16.6087C16.608 17.0089 16.2836 17.3333 15.8834 17.3333H1.39065C0.990447 17.3333 0.666016 17.0089 0.666016 16.6087Z" fill="#00204D" fill-opacity="0.6" style="mix-blend-mode:multiply"/>
<path fill-rule="evenodd" clip-rule="evenodd" d="M11.0232 0.878908C11.3062 0.595919 11.765 0.595919 12.048 0.878908L14.9465 3.77746C15.2295 4.06045 15.2295 4.51926 14.9465 4.80225L6.25089 13.4979C6.14973 13.5991 6.02089 13.668 5.8806 13.6961L2.25742 14.4207C2.01984 14.4682 1.77423 14.3939 1.60291 14.2225C1.43159 14.0512 1.35722 13.8056 1.40474 13.568L2.12937 9.94484C2.15743 9.80456 2.22638 9.67572 2.32754 9.57456L11.0232 0.878908ZM3.50748 10.4442L3.03904 12.7864L5.38124 12.318L13.4094 4.28985L11.5356 2.4161L3.50748 10.4442Z" fill="#00204D" fill-opacity="0.6" style="mix-blend-mode:multiply"/>
</svg>
