<svg width="64" height="64" viewBox="0 0 64 64" fill="none" xmlns="http://www.w3.org/2000/svg">
<rect width="64" height="64" rx="32" fill="#FCEEED"/>
<path d="M32.0002 15.333C22.8099 15.333 15.3335 22.8094 15.3335 31.9997C15.3335 41.19 22.8099 48.6663 32.0002 48.6663C41.1904 48.6663 48.6668 41.19 48.6668 31.9997C48.6668 22.8094 41.1904 15.333 32.0002 15.333ZM31.3057 41.7219C30.1557 41.7219 29.2224 40.7886 29.2224 39.6386C29.2224 38.4886 30.1557 37.5552 31.3057 37.5552C32.4557 37.5552 33.3891 38.4886 33.3891 39.6386C33.3891 40.7886 32.4557 41.7219 31.3057 41.7219ZM37.2932 29.3983C36.8641 30.0858 36.0488 30.858 34.846 31.7163C32.9002 33.1552 32.9529 33.4747 32.9529 34.7775H29.5404C29.5404 33.7594 29.5182 32.9775 30.0682 32.0261C30.4196 31.4163 31.0641 30.7677 32.0002 30.0816C33.1238 29.2788 34.2154 28.5052 34.2154 27.158C34.2154 25.8955 33.1349 25.4455 31.8724 25.4455C30.5849 25.4455 29.1168 25.8663 27.4682 26.708L26.0641 23.8886C29.0599 22.2094 33.7877 21.4497 36.3724 23.5538C38.2696 25.0997 38.2807 27.8177 37.2932 29.3983Z" fill="#E14337"/>
</svg>
