<svg width="32" height="32" viewBox="0 0 32 32" fill="none" xmlns="http://www.w3.org/2000/svg">
<path d="M26.6249 21.0691L16.7278 10.942C16.3685 10.5753 15.6331 10.5753 15.2767 10.942L5.37682 21.0691C5.35246 21.094 5.33787 21.1234 5.33466 21.1541C5.33145 21.1848 5.33975 21.2155 5.35864 21.2429C5.37754 21.2703 5.40628 21.2933 5.4417 21.3093C5.47711 21.3253 5.5178 21.3338 5.55927 21.3337H7.66443C7.80758 21.3337 7.94231 21.2816 8.02651 21.1962L16.0008 13.0378L23.9752 21.1962C24.0594 21.2816 24.1941 21.3337 24.3373 21.3337H26.4424C26.6249 21.3337 26.7315 21.1795 26.6249 21.0691Z" fill="#00204D" fill-opacity="0.6" style="mix-blend-mode:multiply"/>
</svg>
