<svg width="16" height="16" viewBox="0 0 16 16" fill="none" xmlns="http://www.w3.org/2000/svg">
<path d="M8.00016 1.33334C6.68162 1.33334 5.39269 1.72434 4.29636 2.45688C3.20004 3.18942 2.34555 4.23061 1.84097 5.44879C1.33638 6.66696 1.20436 8.0074 1.4616 9.30061C1.71883 10.5938 2.35377 11.7817 3.28612 12.7141C4.21847 13.6464 5.40636 14.2813 6.69956 14.5386C7.99277 14.7958 9.33321 14.6638 10.5514 14.1592C11.7696 13.6546 12.8108 12.8001 13.5433 11.7038C14.2758 10.6075 14.6668 9.31855 14.6668 8.00001C14.6617 6.23348 13.9577 4.54076 12.7085 3.29163C11.4594 2.0425 9.7667 1.33847 8.00016 1.33334V1.33334ZM6.88905 11.0078L3.88128 8.00001L4.66683 7.21445L6.88905 9.43668L11.3335 4.99223L12.1191 5.77779L6.88905 11.0078Z" fill="#39AC6D"/>
</svg>
