<svg width="20" height="20" viewBox="0 0 20 20" fill="none" xmlns="http://www.w3.org/2000/svg">
<path d="M18.4863 9.86357L10.9395 2.32061L10.4336 1.81475C10.3184 1.70025 10.1625 1.63599 10 1.63599C9.83755 1.63599 9.68169 1.70025 9.56643 1.81475L1.51369 9.86357C1.39559 9.98122 1.30225 10.1213 1.23918 10.2756C1.17612 10.4299 1.14461 10.5953 1.1465 10.762C1.15432 11.4495 1.72658 11.9983 2.41408 11.9983H3.24416V18.3597H16.7559V11.9983H17.6035C17.9375 11.9983 18.252 11.8675 18.4883 11.6312C18.6047 11.5152 18.6969 11.3772 18.7596 11.2254C18.8223 11.0735 18.8542 10.9107 18.8535 10.7464C18.8535 10.4144 18.7227 10.0999 18.4863 9.86357ZM11.0938 16.9534H8.90627V12.969H11.0938V16.9534ZM15.3496 10.5921V16.9534H12.3438V12.5003C12.3438 12.0687 11.9942 11.719 11.5625 11.719H8.43752C8.00588 11.719 7.65627 12.0687 7.65627 12.5003V16.9534H4.65041V10.5921H2.77541L10.002 3.37139L10.4531 3.82256L17.2266 10.5921H15.3496Z" fill="#1890FF"/>
</svg>
