<svg width="24" height="24" viewBox="0 0 24 24" fill="none" xmlns="http://www.w3.org/2000/svg">
<path d="M8.71382 11.9997C8.71382 13.8162 10.1834 15.2857 11.9998 15.2857C13.8162 15.2857 15.2857 13.8162 15.2857 11.9997C15.2857 10.1833 13.8162 8.71381 11.9998 8.71381C10.1834 8.71381 8.71382 10.181 8.71382 11.9997ZM21.0935 8.4935L15.6021 8.77709C17.0927 10.5185 17.1162 13.031 15.8623 14.9576L11.456 21.7357C13.2841 21.8341 15.1685 21.4333 16.8748 20.4419C21.0935 18.0044 22.8044 12.8927 21.0935 8.4935ZM7.50679 13.8724L3.83882 6.65834C2.79994 8.24592 2.24762 10.1025 2.24976 11.9997C2.24976 16.8747 5.81929 20.913 10.4857 21.6279L12.9912 16.7201C10.7271 17.1466 8.54039 15.9044 7.50679 13.8724ZM12.6279 7.181L20.6998 7.60522C19.8748 5.96928 18.5763 4.54662 16.8701 3.55522C15.3255 2.66225 13.6287 2.23803 11.9646 2.24975C9.09351 2.26147 6.28804 3.5435 4.41539 5.87084L7.42007 10.4857C8.17007 8.33178 10.3451 7.0474 12.6279 7.181Z" fill="white"/>
</svg>
