<svg width="24" height="24" viewBox="0 0 24 24" fill="none" xmlns="http://www.w3.org/2000/svg">
<path d="M15.6258 11.8468L9.86016 7.67493C9.83214 7.65459 9.79903 7.6424 9.76451 7.63972C9.72999 7.63704 9.6954 7.64398 9.66457 7.65975C9.63375 7.67553 9.6079 7.69953 9.58988 7.7291C9.57186 7.75867 9.56239 7.79265 9.5625 7.82727V8.92649C9.5625 9.16555 9.67735 9.39289 9.87188 9.53352L13.2797 11.9991L9.87188 14.4648C9.67735 14.6054 9.5625 14.8304 9.5625 15.0718V16.171C9.5625 16.3233 9.73594 16.4124 9.86016 16.3233L15.6258 12.1515C15.7289 12.0765 15.7289 11.9218 15.6258 11.8468Z" fill="#262626"/>
<path d="M12 1.5C6.20156 1.5 1.5 6.20156 1.5 12C1.5 17.7984 6.20156 22.5 12 22.5C17.7984 22.5 22.5 17.7984 22.5 12C22.5 6.20156 17.7984 1.5 12 1.5ZM12 20.7188C7.18594 20.7188 3.28125 16.8141 3.28125 12C3.28125 7.18594 7.18594 3.28125 12 3.28125C16.8141 3.28125 20.7188 7.18594 20.7188 12C20.7188 16.8141 16.8141 20.7188 12 20.7188Z" fill="#262626"/>
</svg>
