<svg width="17" height="18" viewBox="0 0 17 18" fill="none" xmlns="http://www.w3.org/2000/svg">
<path d="M3.44477 8.30587H1.36144C1.17726 8.30587 1.00062 8.37903 0.87039 8.50927C0.740157 8.6395 0.666992 8.81613 0.666992 9.00031V16.6392C0.666992 16.8234 0.740157 17 0.87039 17.1302C1.00062 17.2605 1.17726 17.3336 1.36144 17.3336H3.44477V8.30587Z" fill="#00204D" fill-opacity="0.6" style="mix-blend-mode:multiply"/>
<path d="M16.319 7.8892C16.0583 7.58439 15.7347 7.33965 15.3704 7.17182C15.0061 7.004 14.6097 6.91705 14.2086 6.91698H9.69475V3.44477C9.69475 1.91282 9.14337 0.666992 7.61142 0.666992C7.45904 0.666961 7.31088 0.717051 7.18978 0.809539C7.06868 0.902028 6.98136 1.03178 6.94129 1.1788L4.83365 8.30587V17.3336H13.4628C14.1272 17.3367 14.7705 17.1003 15.2748 16.6677C15.7791 16.2351 16.1106 15.6352 16.2086 14.9781L16.9559 10.117C17.0163 9.72169 16.9907 9.31801 16.8808 8.93352C16.7709 8.54904 16.5793 8.19281 16.319 7.8892Z" fill="#00204D" fill-opacity="0.6" style="mix-blend-mode:multiply"/>
</svg>
