<svg width="17" height="18" viewBox="0 0 17 18" fill="none" xmlns="http://www.w3.org/2000/svg">
<path fill-rule="evenodd" clip-rule="evenodd" d="M6.9165 0.666992C6.60334 0.666992 6.32893 0.87659 6.24653 1.17872L4.30276 8.30588H1.36095C0.977417 8.30588 0.666504 8.61679 0.666504 9.00033V16.6392C0.666504 17.0227 0.977417 17.3337 1.36095 17.3337H13.4631C14.1261 17.333 14.767 17.0951 15.27 16.6631C15.773 16.2311 16.1049 15.6334 16.2057 14.9781L16.9536 10.117C17.0144 9.72117 16.989 9.31687 16.879 8.93181C16.769 8.54674 16.5771 8.19001 16.3163 7.88606C16.0555 7.58212 15.7321 7.33815 15.3683 7.17089C15.0044 7.00362 14.6086 6.91701 14.2082 6.91699H9.69428V3.44477C9.69428 2.70806 9.40162 2.00152 8.88069 1.48058C8.35976 0.95965 7.65322 0.666992 6.9165 0.666992ZM5.52762 9.09332L7.42104 2.15076C7.59841 2.21992 7.76138 2.32546 7.8986 2.46268C8.15906 2.72314 8.30539 3.07641 8.30539 3.44477V7.61144C8.30539 7.99497 8.61631 8.30588 8.99984 8.30588H14.2082C14.4084 8.3059 14.6063 8.3492 14.7882 8.43283C14.9701 8.51646 15.1318 8.63844 15.2622 8.79042C15.3926 8.94239 15.4885 9.12075 15.5435 9.31329C15.5985 9.50581 15.6112 9.70799 15.5808 9.90588L14.8329 14.767C14.7825 15.0947 14.6166 15.3935 14.3651 15.6095C14.1136 15.8255 13.7931 15.9444 13.4616 15.9448H5.52762V9.09332ZM4.13873 15.9448V9.69477H2.05539V15.9448H4.13873Z" fill="#00204D" fill-opacity="0.6" style="mix-blend-mode:multiply"/>
</svg>
