<svg width="24" height="24" viewBox="0 0 24 24" fill="none" xmlns="http://www.w3.org/2000/svg">
<path fill-rule="evenodd" clip-rule="evenodd" d="M6.49997 12.0001C6.03974 12.0001 5.66665 12.3732 5.66665 12.8334V19.5C5.66665 19.9603 6.03974 20.3333 6.49997 20.3333H18.1665C18.6268 20.3333 18.9998 19.9603 18.9998 19.5V12.8334C18.9998 12.3732 18.6268 12.0001 18.1665 12.0001H6.49997ZM4 12.8334C4 11.4527 5.11928 10.3335 6.49997 10.3335H18.1665C19.5472 10.3335 20.6665 11.4527 20.6665 12.8334V19.5C20.6665 20.8807 19.5472 22 18.1665 22H6.49997C5.11928 22 4 20.8807 4 19.5V12.8334Z" fill="#00204D" fill-opacity="0.6" style="mix-blend-mode:multiply"/>
<path fill-rule="evenodd" clip-rule="evenodd" d="M12.3332 15.3334C11.873 15.3334 11.4999 15.7065 11.4999 16.1667C11.4999 16.627 11.873 17.0001 12.3332 17.0001C12.7935 17.0001 13.1666 16.627 13.1666 16.1667C13.1666 15.7065 12.7935 15.3334 12.3332 15.3334ZM9.83327 16.1667C9.83327 14.786 10.9525 13.6668 12.3332 13.6668C13.7139 13.6668 14.8332 14.786 14.8332 16.1667C14.8332 17.5474 13.7139 18.6667 12.3332 18.6667C10.9525 18.6667 9.83327 17.5474 9.83327 16.1667Z" fill="#00204D" fill-opacity="0.6" style="mix-blend-mode:multiply"/>
<path fill-rule="evenodd" clip-rule="evenodd" d="M12.3372 2.0002H12.4251C13.74 2.01369 14.9958 2.5489 15.9161 3.48808C16.8355 4.42622 17.3451 5.69074 17.3332 7.0041V7.83348C17.3332 8.29371 16.9601 8.6668 16.4999 8.6668C16.0396 8.6668 15.6665 8.29371 15.6665 7.83348V6.99186C15.6752 6.11886 15.3369 5.27815 14.7258 4.65461C14.1157 4.03203 13.2836 3.67686 12.4121 3.66685H12.325C11.452 3.65817 10.6112 3.99653 9.98771 4.60759C9.36513 5.21772 9.00995 6.0498 8.99995 6.92133V7.83348C8.99995 8.29371 8.62686 8.6668 8.16662 8.6668C7.70639 8.6668 7.3333 8.29371 7.3333 7.83348V6.90828C7.34678 5.59337 7.882 4.33764 8.82117 3.41725C9.75932 2.49787 11.0238 1.98828 12.3372 2.0002Z" fill="#00204D" fill-opacity="0.6" style="mix-blend-mode:multiply"/>
</svg>
