<svg width="24" height="24" viewBox="0 0 24 24" fill="none" xmlns="http://www.w3.org/2000/svg">
<path d="M21.8808 6.57083L19.3808 2.40417C19.3068 2.28091 19.2021 2.17891 19.0769 2.10808C18.9518 2.03726 18.8105 2.00003 18.6667 2H5.33334C5.18954 2.00003 5.0482 2.03726 4.92306 2.10808C4.79791 2.17891 4.69322 2.28091 4.61917 2.40417L2.11917 6.57083C2.04125 6.70042 2.00005 6.84878 2.00001 7C1.99846 7.88207 2.3472 8.72867 2.9696 9.35372C3.59199 9.97877 4.4371 10.3311 5.31917 10.3333H5.32584C6.14895 10.3354 6.94335 10.0309 7.55417 9.47916C8.1632 10.0296 8.9549 10.3344 9.77583 10.3344C10.5968 10.3344 11.3885 10.0296 11.9975 9.47916C12.6068 10.0308 13.3993 10.3363 14.2212 10.3363C15.0431 10.3363 15.8357 10.0308 16.445 9.47916C16.9233 9.91065 17.5166 10.194 18.1528 10.2948C18.7891 10.3956 19.4409 10.3095 20.0291 10.047C20.6174 9.78443 21.1167 9.35676 21.4666 8.81587C21.8165 8.27499 22.0018 7.64416 22 7C21.9999 6.84878 21.9587 6.70042 21.8808 6.57083Z" fill="#366AE2"/>
<path d="M18.68 12C17.9054 12.0006 17.1412 11.8214 16.4475 11.4767L16.435 11.4825C15.8495 11.7744 15.2119 11.9476 14.5591 11.9919C13.9064 12.0363 13.2513 11.9509 12.6317 11.7408C12.4149 11.668 12.2033 11.5805 11.9983 11.4792L11.9892 11.4833C11.4038 11.7755 10.7664 11.9487 10.1137 11.9929C9.46101 12.0371 8.80603 11.9514 8.18666 11.7408C7.97018 11.668 7.75886 11.5805 7.55416 11.4792C6.86174 11.823 6.09892 12.0013 5.32583 12C5.04898 11.9974 4.7728 11.9723 4.5 11.925V20.3333C4.5 20.5543 4.58779 20.7663 4.74408 20.9226C4.90036 21.0789 5.11232 21.1667 5.33333 21.1667H10.3333V16.1667H13.6667V21.1667H18.6667C18.8877 21.1667 19.0996 21.0789 19.2559 20.9226C19.4122 20.7663 19.5 20.5543 19.5 20.3333V11.9217C19.2293 11.9702 18.955 11.9964 18.68 12Z" fill="#366AE2"/>
</svg>
