<svg width="20" height="20" viewBox="0 0 20 20" fill="none" xmlns="http://www.w3.org/2000/svg">
<path fill-rule="evenodd" clip-rule="evenodd" d="M6.13701 0.833334H13.8643V3.86364H19.1673V5.5303H0.833984V3.86364H6.13701V0.833334ZM7.80368 3.86364H12.1976V2.5H7.80368V3.86364ZM4.71191 6.8367L5.42808 16.8664C5.44032 17.0384 5.51731 17.1996 5.64351 17.3171C5.76971 17.4347 5.93575 17.5 6.10823 17.5H13.8931C14.0655 17.5 14.2316 17.4347 14.3578 17.3171C14.484 17.1996 14.561 17.0386 14.5732 16.8666L15.2894 6.8367L16.9518 6.95541L16.2357 16.9849C16.2357 16.985 16.2357 16.9849 16.2357 16.9849C16.1934 17.5774 15.9283 18.132 15.4937 18.5368C15.059 18.9416 14.4871 19.1667 13.8931 19.1667H6.10825C5.51424 19.1667 4.9423 18.9416 4.50762 18.5368C4.07298 18.132 3.80786 17.5775 3.76565 16.9851C3.76564 16.985 3.76565 16.9852 3.76565 16.9851L3.04947 6.95541L4.71191 6.8367Z" fill="#00204D" fill-opacity="0.6" style="mix-blend-mode:multiply"/>
</svg>
