<svg width="24" height="24" viewBox="0 0 24 24" fill="none" xmlns="http://www.w3.org/2000/svg">
<path fill-rule="evenodd" clip-rule="evenodd" d="M11.6051 8.66667C9.76411 8.66667 8.27173 10.1591 8.27173 12C8.27173 13.8409 9.76411 15.3333 11.6051 15.3333C13.446 15.3333 14.9384 13.8409 14.9384 12C14.9384 10.1591 13.446 8.66667 11.6051 8.66667ZM9.9384 12C9.9384 11.0795 10.6846 10.3333 11.6051 10.3333C12.5255 10.3333 13.2717 11.0795 13.2717 12C13.2717 12.9205 12.5255 13.6667 11.6051 13.6667C10.6846 13.6667 9.9384 12.9205 9.9384 12Z" fill="#00204D" fill-opacity="0.6" style="mix-blend-mode:multiply"/>
<path fill-rule="evenodd" clip-rule="evenodd" d="M9.9384 2C9.51814 2 9.16364 2.31293 9.1115 2.72994L8.82317 5.03592C8.15725 5.30367 7.53326 5.66577 6.97039 6.11108L4.82399 5.20553C4.43678 5.04217 3.98852 5.1927 3.77838 5.55666L2.11171 8.44332C1.90159 8.80725 1.99532 9.27069 2.33035 9.52437L4.18309 10.9272C4.0791 11.6386 4.0791 12.3614 4.18309 13.0728L2.33035 14.4756C1.99532 14.7293 1.90159 15.1927 2.11171 15.5567L3.77838 18.4433C3.98852 18.8073 4.43678 18.9578 4.82399 18.7945L6.97039 17.8889C7.53326 18.3342 8.15726 18.6963 8.82317 18.9641L9.1115 21.2701C9.16364 21.6871 9.51814 22 9.9384 22H13.2717C13.692 22 14.0465 21.6871 14.0986 21.2701L14.387 18.9641C15.0529 18.6963 15.6769 18.3342 16.2397 17.8889L18.3861 18.7945C18.7733 18.9578 19.2216 18.8073 19.4317 18.4433L21.0984 15.5567C21.3085 15.1927 21.2148 14.7293 20.8798 14.4756L19.0265 13.0723C19.078 12.718 19.1043 12.3602 19.1051 12.0017V11.9983C19.1043 11.6398 19.078 11.282 19.0265 10.9277L20.8798 9.52437C21.2148 9.27069 21.3085 8.80725 21.0984 8.44332L19.4317 5.55666C19.2216 5.1927 18.7733 5.04217 18.3861 5.20553L16.2397 6.11108C15.6769 5.66577 15.0529 5.30367 14.387 5.03592L14.0986 2.72994C14.0465 2.31293 13.692 2 13.2717 2H9.9384ZM10.4136 5.74923L10.674 3.66667H12.5361L12.7965 5.74923C12.8368 6.07117 13.0602 6.34048 13.3692 6.43945C14.1708 6.69622 14.9073 7.12376 15.5278 7.6926C15.768 7.91283 16.1145 7.97281 16.4148 7.84613L18.3562 7.02708L19.2873 8.63966L17.612 9.90813C17.3527 10.1045 17.2313 10.4339 17.3012 10.7516C17.3914 11.1616 17.4374 11.5801 17.4384 12C17.4374 12.4199 17.3914 12.8384 17.3012 13.2484C17.2313 13.5661 17.3527 13.8955 17.612 14.0919L19.2873 15.3603L18.3562 16.9729L16.4148 16.1539C16.1146 16.0272 15.768 16.0872 15.5278 16.3074C14.9073 16.8762 14.1708 17.3038 13.3692 17.5606C13.0602 17.6595 12.8368 17.9288 12.7965 18.2508L12.5361 20.3333H10.674L10.4136 18.2508C10.3734 17.9288 10.1499 17.6595 9.84093 17.5606C9.03928 17.3038 8.30285 16.8762 7.68237 16.3074C7.44214 16.0872 7.09558 16.0272 6.7953 16.1539L4.85392 16.9729L3.92287 15.3603L5.59811 14.0919C5.85795 13.8951 5.97924 13.565 5.90857 13.2468C5.72617 12.4256 5.72617 11.5744 5.90857 10.7532C5.97924 10.435 5.85795 10.1049 5.59811 9.90813L3.92287 8.63966L4.85392 7.02708L6.7953 7.84613C7.09558 7.97281 7.44214 7.91283 7.68237 7.6926C8.30285 7.12376 9.03928 6.69622 9.84093 6.43945C10.1499 6.34048 10.3734 6.07117 10.4136 5.74923Z" fill="#00204D" fill-opacity="0.6" style="mix-blend-mode:multiply"/>
</svg>
