<svg width="20" height="20" viewBox="0 0 20 20" fill="none" xmlns="http://www.w3.org/2000/svg">
<path d="M17.796 7.66028L12.7996 6.93792L10.5661 2.43339C10.5051 2.31005 10.4047 2.21021 10.2808 2.14953C9.96986 1.99683 9.59203 2.12408 9.43657 2.43339L7.20308 6.93792L2.20673 7.66028C2.06898 7.67986 1.94304 7.74446 1.84662 7.84235C1.73005 7.96154 1.66581 8.1219 1.66802 8.28818C1.67024 8.45447 1.73872 8.61308 1.85842 8.72916L5.47335 12.2353L4.6193 17.1862C4.59928 17.3013 4.61209 17.4198 4.65628 17.5281C4.70048 17.6364 4.77429 17.7302 4.86935 17.7989C4.96441 17.8675 5.07692 17.9084 5.19411 17.9167C5.3113 17.925 5.42849 17.9005 5.53238 17.8459L10.0013 15.5085L14.4703 17.8459C14.5923 17.9105 14.734 17.932 14.8698 17.9085C15.2122 17.8498 15.4424 17.5268 15.3834 17.1862L14.5293 12.2353L18.1443 8.72916C18.2427 8.63323 18.3076 8.50794 18.3273 8.37091C18.3804 8.02832 18.1403 7.71118 17.796 7.66028Z" fill="black"/>
</svg>
